STARTFONT 2.1
FONT -FontForge-Liberation Sans-Bold-R-Normal-Sans--10-100-75-75-P-60-ISO10646-1
SIZE 10 75 75
FONTBOUNDINGBOX 12 14 -1 -3
COMMENT "Generated by fontforge, http://fontforge.sourceforge.net"
COMMENT "Digitized data (c) 2007 Ascender Corporation. All rights reserved."
STARTPROPERTIES 40
FOUNDRY "FontForge"
FAMILY_NAME "Liberation Sans"
WEIGHT_NAME "Bold"
SLANT "R"
SETWIDTH_NAME "Normal"
ADD_STYLE_NAME "Sans"
PIXEL_SIZE 10
POINT_SIZE 100
RESOLUTION_X 75
RESOLUTION_Y 75
SPACING "P"
AVERAGE_WIDTH 60
CHARSET_REGISTRY "ISO10646"
CHARSET_ENCODING "1"
FONTNAME_REGISTRY ""
CHARSET_COLLECTIONS "ASCII ISOLatin1Encoding ISO8859-2 ISO8859-5 ISO8859-7 ISO8859-9 ISO8859-4 Symbol ISO10646-1"
FONT_NAME "LiberationSans-Bold"
FACE_NAME "Liberation Sans Bold"
COPYRIGHT "Digitized data (c) 2007 Ascender Corporation. All rights reserved."
FONT_VERSION "1.04"
FONT_ASCENT 8
FONT_DESCENT 2
UNDERLINE_POSITION -4
UNDERLINE_THICKNESS 2
X_HEIGHT 4
CAP_HEIGHT 6
RAW_ASCENT 799
RAW_DESCENT 200
NORM_SPACE 3
RELATIVE_WEIGHT 70
RELATIVE_SETWIDTH 50
SUPERSCRIPT_X 0
SUPERSCRIPT_Y 4
SUPERSCRIPT_SIZE 6
SUBSCRIPT_X 0
SUBSCRIPT_Y 1
SUBSCRIPT_SIZE 6
FIGURE_WIDTH 6
AVG_LOWERCASE_WIDTH 56
AVG_UPPERCASE_WIDTH 69
ENDPROPERTIES
CHARS 682
STARTCHAR space
ENCODING 32
SWIDTH 277 0
DWIDTH 3 0
BBX 1 1 0 0
BITMAP
00
ENDCHAR
STARTCHAR exclam
ENCODING 33
SWIDTH 333 0
DWIDTH 3 0
BBX 1 7 1 0
BITMAP
80
80
80
80
80
00
80
ENDCHAR
STARTCHAR quotedbl
ENCODING 34
SWIDTH 474 0
DWIDTH 5 0
BBX 3 3 1 4
BITMAP
A0
A0
A0
ENDCHAR
STARTCHAR numbersign
ENCODING 35
SWIDTH 556 0
DWIDTH 6 0
BBX 6 7 -1 0
BITMAP
24
24
FC
28
FC
48
48
ENDCHAR
STARTCHAR dollar
ENCODING 36
SWIDTH 556 0
DWIDTH 6 0
BBX 5 8 0 -1
BITMAP
20
78
A0
60
30
28
F0
20
ENDCHAR
STARTCHAR percent
ENCODING 37
SWIDTH 889 0
DWIDTH 9 0
BBX 8 7 0 0
BITMAP
44
A4
A8
52
15
25
22
ENDCHAR
STARTCHAR ampersand
ENCODING 38
SWIDTH 722 0
DWIDTH 7 0
BBX 6 7 0 0
BITMAP
30
48
30
64
94
88
74
ENDCHAR
STARTCHAR quotesingle
ENCODING 39
SWIDTH 237 0
DWIDTH 2 0
BBX 1 3 0 4
BITMAP
80
80
80
ENDCHAR
STARTCHAR parenleft
ENCODING 40
SWIDTH 333 0
DWIDTH 3 0
BBX 3 10 0 -3
BITMAP
20
40
80
80
80
80
80
80
40
20
ENDCHAR
STARTCHAR parenright
ENCODING 41
SWIDTH 333 0
DWIDTH 3 0
BBX 3 10 0 -3
BITMAP
80
40
20
20
20
20
20
20
40
80
ENDCHAR
STARTCHAR asterisk
ENCODING 42
SWIDTH 389 0
DWIDTH 4 0
BBX 3 4 0 3
BITMAP
40
E0
40
A0
ENDCHAR
STARTCHAR plus
ENCODING 43
SWIDTH 583 0
DWIDTH 6 0
BBX 5 5 0 1
BITMAP
20
20
F8
20
20
ENDCHAR
STARTCHAR comma
ENCODING 44
SWIDTH 277 0
DWIDTH 3 0
BBX 1 3 1 -2
BITMAP
80
80
80
ENDCHAR
STARTCHAR hyphen
ENCODING 45
SWIDTH 333 0
DWIDTH 3 0
BBX 3 1 0 2
BITMAP
E0
ENDCHAR
STARTCHAR period
ENCODING 46
SWIDTH 277 0
DWIDTH 3 0
BBX 1 1 1 0
BITMAP
80
ENDCHAR
STARTCHAR slash
ENCODING 47
SWIDTH 277 0
DWIDTH 3 0
BBX 2 7 0 0
BITMAP
40
40
40
80
80
80
80
ENDCHAR
STARTCHAR zero
ENCODING 48
SWIDTH 556 0
DWIDTH 6 0
BBX 5 7 0 0
BITMAP
70
88
88
88
88
88
70
ENDCHAR
STARTCHAR one
ENCODING 49
SWIDTH 556 0
DWIDTH 6 0
BBX 5 7 0 0
BITMAP
60
A0
20
20
20
20
F8
ENDCHAR
STARTCHAR two
ENCODING 50
SWIDTH 556 0
DWIDTH 6 0
BBX 5 7 0 0
BITMAP
70
88
08
10
60
80
F8
ENDCHAR
STARTCHAR three
ENCODING 51
SWIDTH 556 0
DWIDTH 6 0
BBX 5 7 0 0
BITMAP
70
88
08
30
08
88
70
ENDCHAR
STARTCHAR four
ENCODING 52
SWIDTH 556 0
DWIDTH 6 0
BBX 5 7 0 0
BITMAP
10
30
50
50
90
F8
10
ENDCHAR
STARTCHAR five
ENCODING 53
SWIDTH 556 0
DWIDTH 6 0
BBX 5 7 0 0
BITMAP
F8
80
B0
C8
08
88
70
ENDCHAR
STARTCHAR six
ENCODING 54
SWIDTH 556 0
DWIDTH 6 0
BBX 5 7 0 0
BITMAP
70
88
80
F0
88
88
70
ENDCHAR
STARTCHAR seven
ENCODING 55
SWIDTH 556 0
DWIDTH 6 0
BBX 5 7 0 0
BITMAP
F8
08
10
20
20
40
40
ENDCHAR
STARTCHAR eight
ENCODING 56
SWIDTH 556 0
DWIDTH 6 0
BBX 5 7 0 0
BITMAP
70
88
88
70
88
88
70
ENDCHAR
STARTCHAR nine
ENCODING 57
SWIDTH 556 0
DWIDTH 6 0
BBX 5 7 0 0
BITMAP
70
88
88
78
08
88
70
ENDCHAR
STARTCHAR colon
ENCODING 58
SWIDTH 333 0
DWIDTH 3 0
BBX 1 5 1 0
BITMAP
80
00
00
00
80
ENDCHAR
STARTCHAR semicolon
ENCODING 59
SWIDTH 333 0
DWIDTH 3 0
BBX 1 7 1 -2
BITMAP
80
00
00
00
80
80
80
ENDCHAR
STARTCHAR less
ENCODING 60
SWIDTH 583 0
DWIDTH 6 0
BBX 5 5 0 1
BITMAP
08
70
80
70
08
ENDCHAR
STARTCHAR equal
ENCODING 61
SWIDTH 583 0
DWIDTH 6 0
BBX 5 3 0 2
BITMAP
F8
00
F8
ENDCHAR
STARTCHAR greater
ENCODING 62
SWIDTH 583 0
DWIDTH 6 0
BBX 5 5 0 1
BITMAP
80
70
08
70
80
ENDCHAR
STARTCHAR question
ENCODING 63
SWIDTH 610 0
DWIDTH 6 0
BBX 5 7 0 0
BITMAP
70
88
08
10
20
00
20
ENDCHAR
STARTCHAR at
ENCODING 64
SWIDTH 975 0
DWIDTH 10 0
BBX 9 9 0 -2
BITMAP
3E00
4100
9A80
A480
A480
A480
9B00
4000
3E00
ENDCHAR
STARTCHAR A
ENCODING 65
SWIDTH 722 0
DWIDTH 7 0
BBX 7 7 0 0
BITMAP
10
28
28
44
7C
44
82
ENDCHAR
STARTCHAR B
ENCODING 66
SWIDTH 722 0
DWIDTH 7 0
BBX 5 7 1 0
BITMAP
F0
88
88
F0
88
88
F0
ENDCHAR
STARTCHAR C
ENCODING 67
SWIDTH 722 0
DWIDTH 7 0
BBX 5 7 1 0
BITMAP
70
88
80
80
80
88
70
ENDCHAR
STARTCHAR D
ENCODING 68
SWIDTH 722 0
DWIDTH 7 0
BBX 5 7 1 0
BITMAP
F0
88
88
88
88
88
F0
ENDCHAR
STARTCHAR E
ENCODING 69
SWIDTH 666 0
DWIDTH 7 0
BBX 5 7 1 0
BITMAP
F8
80
80
F8
80
80
F8
ENDCHAR
STARTCHAR F
ENCODING 70
SWIDTH 610 0
DWIDTH 6 0
BBX 4 7 1 0
BITMAP
F0
80
80
F0
80
80
80
ENDCHAR
STARTCHAR G
ENCODING 71
SWIDTH 777 0
DWIDTH 8 0
BBX 6 7 1 0
BITMAP
78
84
80
9C
84
84
78
ENDCHAR
STARTCHAR H
ENCODING 72
SWIDTH 722 0
DWIDTH 7 0
BBX 5 7 1 0
BITMAP
88
88
88
F8
88
88
88
ENDCHAR
STARTCHAR I
ENCODING 73
SWIDTH 277 0
DWIDTH 3 0
BBX 1 7 1 0
BITMAP
80
80
80
80
80
80
80
ENDCHAR
STARTCHAR J
ENCODING 74
SWIDTH 556 0
DWIDTH 6 0
BBX 5 7 0 0
BITMAP
38
08
08
08
08
88
70
ENDCHAR
STARTCHAR K
ENCODING 75
SWIDTH 722 0
DWIDTH 7 0
BBX 5 7 1 0
BITMAP
88
90
A0
C0
A0
90
88
ENDCHAR
STARTCHAR L
ENCODING 76
SWIDTH 610 0
DWIDTH 6 0
BBX 4 7 1 0
BITMAP
80
80
80
80
80
80
F0
ENDCHAR
STARTCHAR M
ENCODING 77
SWIDTH 833 0
DWIDTH 9 0
BBX 7 7 1 0
BITMAP
82
C6
C6
AA
AA
92
92
ENDCHAR
STARTCHAR N
ENCODING 78
SWIDTH 722 0
DWIDTH 7 0
BBX 5 7 1 0
BITMAP
88
C8
C8
A8
98
98
88
ENDCHAR
STARTCHAR O
ENCODING 79
SWIDTH 777 0
DWIDTH 8 0
BBX 6 7 1 0
BITMAP
78
84
84
84
84
84
78
ENDCHAR
STARTCHAR P
ENCODING 80
SWIDTH 666 0
DWIDTH 7 0
BBX 5 7 1 0
BITMAP
F0
88
88
F0
80
80
80
ENDCHAR
STARTCHAR Q
ENCODING 81
SWIDTH 777 0
DWIDTH 8 0
BBX 6 9 1 -2
BITMAP
78
84
84
84
84
84
78
10
0C
ENDCHAR
STARTCHAR R
ENCODING 82
SWIDTH 722 0
DWIDTH 7 0
BBX 6 7 1 0
BITMAP
F0
88
88
F0
90
88
84
ENDCHAR
STARTCHAR S
ENCODING 83
SWIDTH 666 0
DWIDTH 7 0
BBX 5 7 1 0
BITMAP
70
88
80
70
08
88
70
ENDCHAR
STARTCHAR T
ENCODING 84
SWIDTH 610 0
DWIDTH 5 0
BBX 5 7 0 0
BITMAP
F8
20
20
20
20
20
20
ENDCHAR
STARTCHAR U
ENCODING 85
SWIDTH 722 0
DWIDTH 7 0
BBX 5 7 1 0
BITMAP
88
88
88
88
88
88
70
ENDCHAR
STARTCHAR V
ENCODING 86
SWIDTH 666 0
DWIDTH 7 0
BBX 5 7 1 0
BITMAP
88
88
50
50
50
20
20
ENDCHAR
STARTCHAR W
ENCODING 87
SWIDTH 943 0
DWIDTH 9 0
BBX 10 7 0 0
BITMAP
88C0
8C80
5480
5480
5300
3300
2200
ENDCHAR
STARTCHAR X
ENCODING 88
SWIDTH 666 0
DWIDTH 7 0
BBX 5 7 1 0
BITMAP
88
50
50
20
50
50
88
ENDCHAR
STARTCHAR Y
ENCODING 89
SWIDTH 666 0
DWIDTH 7 0
BBX 5 7 1 0
BITMAP
88
50
50
20
20
20
20
ENDCHAR
STARTCHAR Z
ENCODING 90
SWIDTH 610 0
DWIDTH 6 0
BBX 4 7 1 0
BITMAP
F0
10
20
20
40
80
F0
ENDCHAR
STARTCHAR bracketleft
ENCODING 91
SWIDTH 333 0
DWIDTH 3 0
BBX 2 10 1 -3
BITMAP
C0
80
80
80
80
80
80
80
80
C0
ENDCHAR
STARTCHAR backslash
ENCODING 92
SWIDTH 277 0
DWIDTH 3 0
BBX 2 7 0 0
BITMAP
80
80
80
40
40
40
40
ENDCHAR
STARTCHAR bracketright
ENCODING 93
SWIDTH 333 0
DWIDTH 3 0
BBX 2 10 0 -3
BITMAP
C0
40
40
40
40
40
40
40
40
C0
ENDCHAR
STARTCHAR asciicircum
ENCODING 94
SWIDTH 583 0
DWIDTH 6 0
BBX 5 4 0 3
BITMAP
20
50
50
88
ENDCHAR
STARTCHAR underscore
ENCODING 95
SWIDTH 556 0
DWIDTH 6 0
BBX 6 1 0 -2
BITMAP
FC
ENDCHAR
STARTCHAR grave
ENCODING 96
SWIDTH 333 0
DWIDTH 3 0
BBX 2 2 0 6
BITMAP
80
40
ENDCHAR
STARTCHAR a
ENCODING 97
SWIDTH 556 0
DWIDTH 6 0
BBX 6 5 0 0
BITMAP
F0
08
78
88
74
ENDCHAR
STARTCHAR b
ENCODING 98
SWIDTH 610 0
DWIDTH 6 0
BBX 5 7 0 0
BITMAP
80
80
F0
88
88
88
F0
ENDCHAR
STARTCHAR c
ENCODING 99
SWIDTH 556 0
DWIDTH 6 0
BBX 5 5 0 0
BITMAP
70
88
80
88
70
ENDCHAR
STARTCHAR d
ENCODING 100
SWIDTH 610 0
DWIDTH 6 0
BBX 5 7 0 0
BITMAP
08
08
78
88
88
88
78
ENDCHAR
STARTCHAR e
ENCODING 101
SWIDTH 556 0
DWIDTH 6 0
BBX 5 5 0 0
BITMAP
70
88
F8
80
78
ENDCHAR
STARTCHAR f
ENCODING 102
SWIDTH 333 0
DWIDTH 3 0
BBX 3 7 0 0
BITMAP
20
40
E0
40
40
40
40
ENDCHAR
STARTCHAR g
ENCODING 103
SWIDTH 610 0
DWIDTH 6 0
BBX 5 8 0 -3
BITMAP
78
88
88
88
78
08
88
70
ENDCHAR
STARTCHAR h
ENCODING 104
SWIDTH 610 0
DWIDTH 6 0
BBX 5 7 0 0
BITMAP
80
80
F0
88
88
88
88
ENDCHAR
STARTCHAR i
ENCODING 105
SWIDTH 277 0
DWIDTH 3 0
BBX 1 7 1 0
BITMAP
80
00
80
80
80
80
80
ENDCHAR
STARTCHAR j
ENCODING 106
SWIDTH 277 0
DWIDTH 4 0
BBX 2 10 0 -3
BITMAP
40
00
40
40
40
40
40
40
40
80
ENDCHAR
STARTCHAR k
ENCODING 107
SWIDTH 556 0
DWIDTH 6 0
BBX 5 7 0 0
BITMAP
80
80
90
A0
E0
90
88
ENDCHAR
STARTCHAR l
ENCODING 108
SWIDTH 277 0
DWIDTH 3 0
BBX 1 7 1 0
BITMAP
80
80
80
80
80
80
80
ENDCHAR
STARTCHAR m
ENCODING 109
SWIDTH 889 0
DWIDTH 9 0
BBX 7 5 1 0
BITMAP
EC
92
92
92
92
ENDCHAR
STARTCHAR n
ENCODING 110
SWIDTH 610 0
DWIDTH 6 0
BBX 5 5 0 0
BITMAP
F0
88
88
88
88
ENDCHAR
STARTCHAR o
ENCODING 111
SWIDTH 610 0
DWIDTH 6 0
BBX 5 5 0 0
BITMAP
70
88
88
88
70
ENDCHAR
STARTCHAR p
ENCODING 112
SWIDTH 610 0
DWIDTH 6 0
BBX 5 8 0 -3
BITMAP
F0
88
88
88
F0
80
80
80
ENDCHAR
STARTCHAR q
ENCODING 113
SWIDTH 610 0
DWIDTH 6 0
BBX 5 8 0 -3
BITMAP
78
88
88
88
78
08
08
08
ENDCHAR
STARTCHAR r
ENCODING 114
SWIDTH 389 0
DWIDTH 4 0
BBX 3 5 0 0
BITMAP
E0
80
80
80
80
ENDCHAR
STARTCHAR s
ENCODING 115
SWIDTH 556 0
DWIDTH 6 0
BBX 5 5 0 0
BITMAP
78
80
70
08
F8
ENDCHAR
STARTCHAR t
ENCODING 116
SWIDTH 333 0
DWIDTH 3 0
BBX 3 6 0 0
BITMAP
40
E0
40
40
40
20
ENDCHAR
STARTCHAR u
ENCODING 117
SWIDTH 610 0
DWIDTH 6 0
BBX 5 5 0 0
BITMAP
88
88
88
88
78
ENDCHAR
STARTCHAR v
ENCODING 118
SWIDTH 556 0
DWIDTH 7 0
BBX 5 5 1 0
BITMAP
88
88
50
50
20
ENDCHAR
STARTCHAR w
ENCODING 119
SWIDTH 777 0
DWIDTH 9 0
BBX 9 5 0 0
BITMAP
8880
8880
5500
5500
2200
ENDCHAR
STARTCHAR x
ENCODING 120
SWIDTH 556 0
DWIDTH 6 0
BBX 5 5 0 0
BITMAP
88
50
20
50
88
ENDCHAR
STARTCHAR y
ENCODING 121
SWIDTH 556 0
DWIDTH 5 0
BBX 5 8 0 -3
BITMAP
88
88
50
50
20
20
20
C0
ENDCHAR
STARTCHAR z
ENCODING 122
SWIDTH 500 0
DWIDTH 5 0
BBX 3 5 1 0
BITMAP
E0
20
40
80
E0
ENDCHAR
STARTCHAR braceleft
ENCODING 123
SWIDTH 389 0
DWIDTH 4 0
BBX 3 10 0 -3
BITMAP
20
40
40
40
80
40
40
40
40
20
ENDCHAR
STARTCHAR bar
ENCODING 124
SWIDTH 279 0
DWIDTH 3 0
BBX 1 9 0 -2
BITMAP
80
80
80
80
80
80
80
80
80
ENDCHAR
STARTCHAR braceright
ENCODING 125
SWIDTH 389 0
DWIDTH 4 0
BBX 3 10 1 -3
BITMAP
80
40
40
40
20
40
40
40
40
80
ENDCHAR
STARTCHAR asciitilde
ENCODING 126
SWIDTH 583 0
DWIDTH 6 0
BBX 3 2 1 3
BITMAP
C0
20
ENDCHAR
STARTCHAR space.dup1
ENCODING 160
SWIDTH 277 0
DWIDTH 3 0
BBX 1 1 0 0
BITMAP
00
ENDCHAR
STARTCHAR exclamdown
ENCODING 161
SWIDTH 333 0
DWIDTH 3 0
BBX 1 7 1 -2
BITMAP
80
00
80
80
80
80
80
ENDCHAR
STARTCHAR cent
ENCODING 162
SWIDTH 556 0
DWIDTH 6 0
BBX 3 8 1 0
BITMAP
E0
E0
E0
C0
C0
A0
A0
60
ENDCHAR
STARTCHAR sterling
ENCODING 163
SWIDTH 556 0
DWIDTH 6 0
BBX 5 7 0 0
BITMAP
30
48
40
E0
40
48
F0
ENDCHAR
STARTCHAR currency
ENCODING 164
SWIDTH 556 0
DWIDTH 6 0
BBX 4 4 1 1
BITMAP
F0
90
90
F0
ENDCHAR
STARTCHAR yen
ENCODING 165
SWIDTH 556 0
DWIDTH 6 0
BBX 5 7 0 0
BITMAP
88
50
50
20
F8
20
20
ENDCHAR
STARTCHAR brokenbar
ENCODING 166
SWIDTH 279 0
DWIDTH 3 0
BBX 1 9 0 -2
BITMAP
80
80
80
80
00
80
80
80
80
ENDCHAR
STARTCHAR section
ENCODING 167
SWIDTH 556 0
DWIDTH 6 0
BBX 5 8 0 -1
BITMAP
78
80
70
88
88
70
08
F0
ENDCHAR
STARTCHAR dieresis
ENCODING 168
SWIDTH 333 0
DWIDTH 3 0
BBX 3 1 0 6
BITMAP
A0
ENDCHAR
STARTCHAR copyright
ENCODING 169
SWIDTH 736 0
DWIDTH 7 0
BBX 7 7 0 0
BITMAP
38
5C
A2
A2
9A
44
38
ENDCHAR
STARTCHAR ordfeminine
ENCODING 170
SWIDTH 370 0
DWIDTH 4 0
BBX 3 4 0 3
BITMAP
C0
60
A0
60
ENDCHAR
STARTCHAR guillemotleft
ENCODING 171
SWIDTH 556 0
DWIDTH 6 0
BBX 4 3 1 1
BITMAP
50
A0
50
ENDCHAR
STARTCHAR logicalnot
ENCODING 172
SWIDTH 583 0
DWIDTH 6 0
BBX 5 3 0 1
BITMAP
F8
08
08
ENDCHAR
STARTCHAR hyphen.dup2
ENCODING 173
SWIDTH 333 0
DWIDTH 3 0
BBX 3 1 0 2
BITMAP
E0
ENDCHAR
STARTCHAR registered
ENCODING 174
SWIDTH 736 0
DWIDTH 7 0
BBX 7 7 0 0
BITMAP
38
74
AA
B2
AA
44
38
ENDCHAR
STARTCHAR macron
ENCODING 175
SWIDTH 552 0
DWIDTH 6 0
BBX 6 1 0 7
BITMAP
FC
ENDCHAR
STARTCHAR degree
ENCODING 176
SWIDTH 399 0
DWIDTH 4 0
BBX 3 3 0 4
BITMAP
40
A0
40
ENDCHAR
STARTCHAR plusminus
ENCODING 177
SWIDTH 548 0
DWIDTH 5 0
BBX 5 7 0 0
BITMAP
20
20
F8
20
20
00
F8
ENDCHAR
STARTCHAR uni00B2
ENCODING 178
SWIDTH 333 0
DWIDTH 3 0
BBX 3 4 0 3
BITMAP
C0
20
40
E0
ENDCHAR
STARTCHAR uni00B3
ENCODING 179
SWIDTH 333 0
DWIDTH 3 0
BBX 2 4 0 3
BITMAP
C0
40
40
C0
ENDCHAR
STARTCHAR acute
ENCODING 180
SWIDTH 333 0
DWIDTH 3 0
BBX 2 2 0 6
BITMAP
40
80
ENDCHAR
STARTCHAR u00B5
ENCODING 181
SWIDTH 576 0
DWIDTH 6 0
BBX 5 8 0 -3
BITMAP
88
88
88
88
F8
80
80
80
ENDCHAR
STARTCHAR paragraph
ENCODING 182
SWIDTH 556 0
DWIDTH 6 0
BBX 6 8 0 -1
BITMAP
7C
E8
E8
68
28
28
28
28
ENDCHAR
STARTCHAR periodcentered
ENCODING 183
SWIDTH 277 0
DWIDTH 3 0
BBX 1 1 1 3
BITMAP
80
ENDCHAR
STARTCHAR cedilla
ENCODING 184
SWIDTH 333 0
DWIDTH 4 0
BBX 2 3 1 -3
BITMAP
80
40
80
ENDCHAR
STARTCHAR uni00B9
ENCODING 185
SWIDTH 333 0
DWIDTH 3 0
BBX 3 4 0 3
BITMAP
C0
40
40
E0
ENDCHAR
STARTCHAR ordmasculine
ENCODING 186
SWIDTH 365 0
DWIDTH 4 0
BBX 3 4 0 3
BITMAP
40
A0
A0
40
ENDCHAR
STARTCHAR guillemotright
ENCODING 187
SWIDTH 556 0
DWIDTH 6 0
BBX 4 3 1 1
BITMAP
A0
50
A0
ENDCHAR
STARTCHAR onequarter
ENCODING 188
SWIDTH 833 0
DWIDTH 8 0
BBX 8 7 0 0
BITMAP
C4
48
48
F3
15
27
21
ENDCHAR
STARTCHAR onehalf
ENCODING 189
SWIDTH 833 0
DWIDTH 8 0
BBX 8 7 0 0
BITMAP
C4
48
48
F6
11
22
27
ENDCHAR
STARTCHAR threequarters
ENCODING 190
SWIDTH 833 0
DWIDTH 8 0
BBX 8 7 0 0
BITMAP
C4
48
48
D3
15
27
21
ENDCHAR
STARTCHAR questiondown
ENCODING 191
SWIDTH 610 0
DWIDTH 6 0
BBX 4 7 1 -2
BITMAP
20
00
20
40
80
90
60
ENDCHAR
STARTCHAR Agrave
ENCODING 192
SWIDTH 722 0
DWIDTH 7 0
BBX 7 10 0 0
BITMAP
20
10
00
10
28
28
44
7C
44
82
ENDCHAR
STARTCHAR Aacute
ENCODING 193
SWIDTH 722 0
DWIDTH 7 0
BBX 7 10 0 0
BITMAP
08
10
00
10
28
28
44
7C
44
82
ENDCHAR
STARTCHAR Acircumflex
ENCODING 194
SWIDTH 722 0
DWIDTH 7 0
BBX 7 10 0 0
BITMAP
10
28
00
10
28
28
44
7C
44
82
ENDCHAR
STARTCHAR Atilde
ENCODING 195
SWIDTH 722 0
DWIDTH 7 0
BBX 7 10 0 0
BITMAP
14
28
00
10
28
28
44
7C
44
82
ENDCHAR
STARTCHAR Adieresis
ENCODING 196
SWIDTH 722 0
DWIDTH 7 0
BBX 7 9 0 0
BITMAP
28
00
10
28
28
44
7C
44
82
ENDCHAR
STARTCHAR Aring
ENCODING 197
SWIDTH 722 0
DWIDTH 7 0
BBX 7 9 0 0
BITMAP
10
28
10
28
28
44
7C
44
82
ENDCHAR
STARTCHAR AE
ENCODING 198
SWIDTH 1000 0
DWIDTH 10 0
BBX 9 7 0 0
BITMAP
1F80
1800
2800
2F80
7800
4800
8F80
ENDCHAR
STARTCHAR Ccedilla
ENCODING 199
SWIDTH 722 0
DWIDTH 7 0
BBX 5 10 1 -3
BITMAP
70
88
80
80
80
88
70
20
10
20
ENDCHAR
STARTCHAR Egrave
ENCODING 200
SWIDTH 666 0
DWIDTH 7 0
BBX 5 10 1 0
BITMAP
40
20
00
F8
80
80
F8
80
80
F8
ENDCHAR
STARTCHAR Eacute
ENCODING 201
SWIDTH 666 0
DWIDTH 7 0
BBX 5 10 1 0
BITMAP
10
20
00
F8
80
80
F8
80
80
F8
ENDCHAR
STARTCHAR Ecircumflex
ENCODING 202
SWIDTH 666 0
DWIDTH 7 0
BBX 5 10 1 0
BITMAP
20
50
00
F8
80
80
F8
80
80
F8
ENDCHAR
STARTCHAR Edieresis
ENCODING 203
SWIDTH 666 0
DWIDTH 7 0
BBX 5 9 1 0
BITMAP
50
00
F8
80
80
F8
80
80
F8
ENDCHAR
STARTCHAR Igrave
ENCODING 204
SWIDTH 277 0
DWIDTH 3 0
BBX 2 10 0 0
BITMAP
80
40
00
40
40
40
40
40
40
40
ENDCHAR
STARTCHAR Iacute
ENCODING 205
SWIDTH 277 0
DWIDTH 3 0
BBX 2 10 1 0
BITMAP
40
80
00
80
80
80
80
80
80
80
ENDCHAR
STARTCHAR Icircumflex
ENCODING 206
SWIDTH 277 0
DWIDTH 3 0
BBX 3 10 0 0
BITMAP
40
A0
00
40
40
40
40
40
40
40
ENDCHAR
STARTCHAR Idieresis
ENCODING 207
SWIDTH 277 0
DWIDTH 3 0
BBX 3 9 0 0
BITMAP
A0
00
40
40
40
40
40
40
40
ENDCHAR
STARTCHAR Eth
ENCODING 208
SWIDTH 722 0
DWIDTH 7 0
BBX 6 7 0 0
BITMAP
78
44
44
E4
44
44
78
ENDCHAR
STARTCHAR Ntilde
ENCODING 209
SWIDTH 722 0
DWIDTH 7 0
BBX 5 10 1 0
BITMAP
28
50
00
88
C8
C8
A8
98
98
88
ENDCHAR
STARTCHAR Ograve
ENCODING 210
SWIDTH 777 0
DWIDTH 8 0
BBX 6 10 1 0
BITMAP
20
10
00
78
84
84
84
84
84
78
ENDCHAR
STARTCHAR Oacute
ENCODING 211
SWIDTH 777 0
DWIDTH 8 0
BBX 6 10 1 0
BITMAP
08
10
00
78
84
84
84
84
84
78
ENDCHAR
STARTCHAR Ocircumflex
ENCODING 212
SWIDTH 777 0
DWIDTH 8 0
BBX 6 10 1 0
BITMAP
10
28
00
78
84
84
84
84
84
78
ENDCHAR
STARTCHAR Otilde
ENCODING 213
SWIDTH 777 0
DWIDTH 8 0
BBX 6 10 1 0
BITMAP
28
50
00
78
84
84
84
84
84
78
ENDCHAR
STARTCHAR Odieresis
ENCODING 214
SWIDTH 777 0
DWIDTH 8 0
BBX 6 9 1 0
BITMAP
28
00
78
84
84
84
84
84
78
ENDCHAR
STARTCHAR multiply
ENCODING 215
SWIDTH 583 0
DWIDTH 6 0
BBX 5 5 0 1
BITMAP
88
50
20
50
88
ENDCHAR
STARTCHAR Oslash
ENCODING 216
SWIDTH 777 0
DWIDTH 8 0
BBX 6 7 1 0
BITMAP
74
88
94
A4
A4
44
B8
ENDCHAR
STARTCHAR Ugrave
ENCODING 217
SWIDTH 722 0
DWIDTH 7 0
BBX 5 10 1 0
BITMAP
40
20
00
88
88
88
88
88
88
70
ENDCHAR
STARTCHAR Uacute
ENCODING 218
SWIDTH 722 0
DWIDTH 7 0
BBX 5 10 1 0
BITMAP
10
20
00
88
88
88
88
88
88
70
ENDCHAR
STARTCHAR Ucircumflex
ENCODING 219
SWIDTH 722 0
DWIDTH 7 0
BBX 5 10 1 0
BITMAP
20
50
00
88
88
88
88
88
88
70
ENDCHAR
STARTCHAR Udieresis
ENCODING 220
SWIDTH 722 0
DWIDTH 7 0
BBX 5 9 1 0
BITMAP
50
00
88
88
88
88
88
88
70
ENDCHAR
STARTCHAR Yacute
ENCODING 221
SWIDTH 666 0
DWIDTH 7 0
BBX 5 10 1 0
BITMAP
10
20
00
88
50
50
20
20
20
20
ENDCHAR
STARTCHAR Thorn
ENCODING 222
SWIDTH 666 0
DWIDTH 7 0
BBX 5 7 1 0
BITMAP
80
F0
88
88
88
F0
80
ENDCHAR
STARTCHAR germandbls
ENCODING 223
SWIDTH 610 0
DWIDTH 6 0
BBX 5 7 0 0
BITMAP
70
88
90
A0
90
88
B0
ENDCHAR
STARTCHAR agrave
ENCODING 224
SWIDTH 556 0
DWIDTH 6 0
BBX 6 8 0 0
BITMAP
20
10
00
F0
08
78
88
74
ENDCHAR
STARTCHAR aacute
ENCODING 225
SWIDTH 556 0
DWIDTH 6 0
BBX 6 8 0 0
BITMAP
10
20
00
F0
08
78
88
74
ENDCHAR
STARTCHAR acircumflex
ENCODING 226
SWIDTH 556 0
DWIDTH 6 0
BBX 6 8 0 0
BITMAP
10
28
00
F0
08
78
88
74
ENDCHAR
STARTCHAR atilde
ENCODING 227
SWIDTH 556 0
DWIDTH 6 0
BBX 6 8 0 0
BITMAP
28
50
00
F0
08
78
88
74
ENDCHAR
STARTCHAR adieresis
ENCODING 228
SWIDTH 556 0
DWIDTH 6 0
BBX 6 7 0 0
BITMAP
28
00
F0
08
78
88
74
ENDCHAR
STARTCHAR aring
ENCODING 229
SWIDTH 556 0
DWIDTH 6 0
BBX 6 9 0 0
BITMAP
10
28
10
00
F0
08
78
88
74
ENDCHAR
STARTCHAR ae
ENCODING 230
SWIDTH 889 0
DWIDTH 9 0
BBX 8 5 0 0
BITMAP
EE
11
7F
90
6F
ENDCHAR
STARTCHAR ccedilla
ENCODING 231
SWIDTH 556 0
DWIDTH 6 0
BBX 5 8 0 -3
BITMAP
70
88
80
88
70
20
10
20
ENDCHAR
STARTCHAR egrave
ENCODING 232
SWIDTH 556 0
DWIDTH 6 0
BBX 5 8 0 0
BITMAP
20
10
00
70
88
F8
80
78
ENDCHAR
STARTCHAR eacute
ENCODING 233
SWIDTH 556 0
DWIDTH 6 0
BBX 5 8 0 0
BITMAP
10
20
00
70
88
F8
80
78
ENDCHAR
STARTCHAR ecircumflex
ENCODING 234
SWIDTH 556 0
DWIDTH 6 0
BBX 5 8 0 0
BITMAP
20
50
00
70
88
F8
80
78
ENDCHAR
STARTCHAR edieresis
ENCODING 235
SWIDTH 556 0
DWIDTH 6 0
BBX 5 7 0 0
BITMAP
50
00
70
88
F8
80
78
ENDCHAR
STARTCHAR igrave
ENCODING 236
SWIDTH 277 0
DWIDTH 3 0
BBX 2 8 0 0
BITMAP
80
40
00
40
40
40
40
40
ENDCHAR
STARTCHAR iacute
ENCODING 237
SWIDTH 277 0
DWIDTH 3 0
BBX 2 8 1 0
BITMAP
40
80
00
80
80
80
80
80
ENDCHAR
STARTCHAR icircumflex
ENCODING 238
SWIDTH 277 0
DWIDTH 3 0
BBX 3 8 0 0
BITMAP
40
A0
00
40
40
40
40
40
ENDCHAR
STARTCHAR idieresis
ENCODING 239
SWIDTH 277 0
DWIDTH 3 0
BBX 3 7 0 0
BITMAP
A0
00
40
40
40
40
40
ENDCHAR
STARTCHAR eth
ENCODING 240
SWIDTH 610 0
DWIDTH 6 0
BBX 5 7 0 0
BITMAP
D0
20
70
88
88
88
70
ENDCHAR
STARTCHAR ntilde
ENCODING 241
SWIDTH 610 0
DWIDTH 6 0
BBX 5 8 0 0
BITMAP
28
50
00
F0
88
88
88
88
ENDCHAR
STARTCHAR ograve
ENCODING 242
SWIDTH 610 0
DWIDTH 6 0
BBX 5 8 0 0
BITMAP
20
10
00
70
88
88
88
70
ENDCHAR
STARTCHAR oacute
ENCODING 243
SWIDTH 610 0
DWIDTH 6 0
BBX 5 8 0 0
BITMAP
10
20
00
70
88
88
88
70
ENDCHAR
STARTCHAR ocircumflex
ENCODING 244
SWIDTH 610 0
DWIDTH 6 0
BBX 5 8 0 0
BITMAP
20
50
00
70
88
88
88
70
ENDCHAR
STARTCHAR otilde
ENCODING 245
SWIDTH 610 0
DWIDTH 6 0
BBX 5 8 0 0
BITMAP
28
50
00
70
88
88
88
70
ENDCHAR
STARTCHAR odieresis
ENCODING 246
SWIDTH 610 0
DWIDTH 6 0
BBX 5 7 0 0
BITMAP
50
00
70
88
88
88
70
ENDCHAR
STARTCHAR divide
ENCODING 247
SWIDTH 548 0
DWIDTH 5 0
BBX 5 5 0 1
BITMAP
20
00
F8
00
20
ENDCHAR
STARTCHAR oslash
ENCODING 248
SWIDTH 610 0
DWIDTH 6 0
BBX 5 5 0 0
BITMAP
68
90
A8
48
B0
ENDCHAR
STARTCHAR ugrave
ENCODING 249
SWIDTH 610 0
DWIDTH 6 0
BBX 5 8 0 0
BITMAP
40
20
00
88
88
88
88
78
ENDCHAR
STARTCHAR uacute
ENCODING 250
SWIDTH 610 0
DWIDTH 6 0
BBX 5 8 0 0
BITMAP
10
20
00
88
88
88
88
78
ENDCHAR
STARTCHAR ucircumflex
ENCODING 251
SWIDTH 610 0
DWIDTH 6 0
BBX 5 8 0 0
BITMAP
20
50
00
88
88
88
88
78
ENDCHAR
STARTCHAR udieresis
ENCODING 252
SWIDTH 610 0
DWIDTH 6 0
BBX 5 7 0 0
BITMAP
50
00
88
88
88
88
78
ENDCHAR
STARTCHAR yacute
ENCODING 253
SWIDTH 556 0
DWIDTH 5 0
BBX 5 11 0 -3
BITMAP
10
20
00
88
88
50
50
20
20
20
C0
ENDCHAR
STARTCHAR thorn
ENCODING 254
SWIDTH 610 0
DWIDTH 6 0
BBX 5 10 0 -3
BITMAP
80
80
F0
88
88
88
F0
80
80
80
ENDCHAR
STARTCHAR ydieresis
ENCODING 255
SWIDTH 556 0
DWIDTH 5 0
BBX 5 10 0 -3
BITMAP
50
00
88
88
50
50
20
20
20
C0
ENDCHAR
STARTCHAR Amacron
ENCODING 256
SWIDTH 722 0
DWIDTH 7 0
BBX 7 9 0 0
BITMAP
38
00
10
28
28
44
7C
44
82
ENDCHAR
STARTCHAR amacron
ENCODING 257
SWIDTH 556 0
DWIDTH 6 0
BBX 6 7 0 0
BITMAP
38
00
F0
08
78
88
74
ENDCHAR
STARTCHAR Abreve
ENCODING 258
SWIDTH 722 0
DWIDTH 7 0
BBX 7 10 0 0
BITMAP
24
18
00
10
28
28
44
7C
44
82
ENDCHAR
STARTCHAR abreve
ENCODING 259
SWIDTH 556 0
DWIDTH 6 0
BBX 6 8 0 0
BITMAP
48
30
00
F0
08
78
88
74
ENDCHAR
STARTCHAR Aogonek
ENCODING 260
SWIDTH 722 0
DWIDTH 7 0
BBX 7 10 0 -3
BITMAP
10
28
28
44
7C
44
82
02
04
02
ENDCHAR
STARTCHAR aogonek
ENCODING 261
SWIDTH 556 0
DWIDTH 6 0
BBX 6 8 0 -3
BITMAP
F0
08
78
88
74
08
10
08
ENDCHAR
STARTCHAR Cacute
ENCODING 262
SWIDTH 722 0
DWIDTH 7 0
BBX 5 10 1 0
BITMAP
08
10
00
70
88
80
80
80
88
70
ENDCHAR
STARTCHAR cacute
ENCODING 263
SWIDTH 556 0
DWIDTH 6 0
BBX 5 8 0 0
BITMAP
10
20
00
70
88
80
88
70
ENDCHAR
STARTCHAR Ccircumflex
ENCODING 264
SWIDTH 722 0
DWIDTH 7 0
BBX 5 10 1 0
BITMAP
20
50
00
70
88
80
80
80
88
70
ENDCHAR
STARTCHAR ccircumflex
ENCODING 265
SWIDTH 556 0
DWIDTH 6 0
BBX 5 8 0 0
BITMAP
20
50
00
70
88
80
88
70
ENDCHAR
STARTCHAR Cdotaccent
ENCODING 266
SWIDTH 722 0
DWIDTH 7 0
BBX 5 9 1 0
BITMAP
20
00
70
88
80
80
80
88
70
ENDCHAR
STARTCHAR cdotaccent
ENCODING 267
SWIDTH 556 0
DWIDTH 6 0
BBX 5 7 0 0
BITMAP
20
00
70
88
80
88
70
ENDCHAR
STARTCHAR Ccaron
ENCODING 268
SWIDTH 722 0
DWIDTH 7 0
BBX 5 10 1 0
BITMAP
50
20
00
70
88
80
80
80
88
70
ENDCHAR
STARTCHAR ccaron
ENCODING 269
SWIDTH 556 0
DWIDTH 6 0
BBX 5 8 0 0
BITMAP
50
20
00
70
88
80
88
70
ENDCHAR
STARTCHAR Dcaron
ENCODING 270
SWIDTH 722 0
DWIDTH 7 0
BBX 5 10 1 0
BITMAP
50
20
00
F0
88
88
88
88
88
F0
ENDCHAR
STARTCHAR dcaron
ENCODING 271
SWIDTH 718 0
DWIDTH 7 0
BBX 7 7 0 0
BITMAP
0A
0A
78
88
88
88
78
ENDCHAR
STARTCHAR Dcroat
ENCODING 272
SWIDTH 722 0
DWIDTH 7 0
BBX 6 7 0 0
BITMAP
78
44
44
E4
44
44
78
ENDCHAR
STARTCHAR dcroat
ENCODING 273
SWIDTH 610 0
DWIDTH 6 0
BBX 6 7 0 0
BITMAP
08
3C
08
78
88
88
78
ENDCHAR
STARTCHAR Emacron
ENCODING 274
SWIDTH 666 0
DWIDTH 7 0
BBX 5 9 1 0
BITMAP
70
00
F8
80
80
F8
80
80
F8
ENDCHAR
STARTCHAR emacron
ENCODING 275
SWIDTH 556 0
DWIDTH 6 0
BBX 5 7 0 0
BITMAP
70
00
70
88
F8
80
78
ENDCHAR
STARTCHAR Ebreve
ENCODING 276
SWIDTH 666 0
DWIDTH 7 0
BBX 5 10 1 0
BITMAP
48
30
00
F8
80
80
F8
80
80
F8
ENDCHAR
STARTCHAR ebreve
ENCODING 277
SWIDTH 556 0
DWIDTH 6 0
BBX 5 8 0 0
BITMAP
48
30
00
70
88
F8
80
78
ENDCHAR
STARTCHAR Edotaccent
ENCODING 278
SWIDTH 666 0
DWIDTH 7 0
BBX 5 9 1 0
BITMAP
20
00
F8
80
80
F8
80
80
F8
ENDCHAR
STARTCHAR edotaccent
ENCODING 279
SWIDTH 556 0
DWIDTH 6 0
BBX 5 7 0 0
BITMAP
20
00
70
88
F8
80
78
ENDCHAR
STARTCHAR Eogonek
ENCODING 280
SWIDTH 666 0
DWIDTH 7 0
BBX 5 10 1 -3
BITMAP
F8
80
80
F8
80
80
F8
08
10
08
ENDCHAR
STARTCHAR eogonek
ENCODING 281
SWIDTH 556 0
DWIDTH 6 0
BBX 5 8 0 -3
BITMAP
70
88
F8
80
78
10
20
10
ENDCHAR
STARTCHAR Ecaron
ENCODING 282
SWIDTH 666 0
DWIDTH 7 0
BBX 5 10 1 0
BITMAP
50
20
00
F8
80
80
F8
80
80
F8
ENDCHAR
STARTCHAR ecaron
ENCODING 283
SWIDTH 556 0
DWIDTH 6 0
BBX 5 8 0 0
BITMAP
50
20
00
70
88
F8
80
78
ENDCHAR
STARTCHAR Gcircumflex
ENCODING 284
SWIDTH 777 0
DWIDTH 8 0
BBX 6 10 1 0
BITMAP
10
28
00
78
84
80
9C
84
84
78
ENDCHAR
STARTCHAR gcircumflex
ENCODING 285
SWIDTH 610 0
DWIDTH 6 0
BBX 5 11 0 -3
BITMAP
20
50
00
78
88
88
88
78
08
88
70
ENDCHAR
STARTCHAR Gbreve
ENCODING 286
SWIDTH 777 0
DWIDTH 8 0
BBX 6 10 1 0
BITMAP
48
30
00
78
84
80
9C
84
84
78
ENDCHAR
STARTCHAR gbreve
ENCODING 287
SWIDTH 610 0
DWIDTH 6 0
BBX 5 11 0 -3
BITMAP
48
30
00
78
88
88
88
78
08
88
70
ENDCHAR
STARTCHAR Gdotaccent
ENCODING 288
SWIDTH 777 0
DWIDTH 8 0
BBX 6 9 1 0
BITMAP
10
00
78
84
80
9C
84
84
78
ENDCHAR
STARTCHAR gdotaccent
ENCODING 289
SWIDTH 610 0
DWIDTH 6 0
BBX 5 10 0 -3
BITMAP
20
00
78
88
88
88
78
08
88
70
ENDCHAR
STARTCHAR Gcommaaccent
ENCODING 290
SWIDTH 777 0
DWIDTH 8 0
BBX 6 10 1 -3
BITMAP
78
84
80
9C
84
84
78
00
10
10
ENDCHAR
STARTCHAR gcommaaccent
ENCODING 291
SWIDTH 610 0
DWIDTH 6 0
BBX 5 11 0 -3
BITMAP
20
20
00
78
88
88
88
78
08
88
70
ENDCHAR
STARTCHAR Hcircumflex
ENCODING 292
SWIDTH 722 0
DWIDTH 7 0
BBX 5 10 1 0
BITMAP
20
50
00
88
88
88
F8
88
88
88
ENDCHAR
STARTCHAR hcircumflex
ENCODING 293
SWIDTH 610 0
DWIDTH 6 0
BBX 5 10 0 0
BITMAP
20
50
00
80
80
F0
88
88
88
88
ENDCHAR
STARTCHAR Hbar
ENCODING 294
SWIDTH 722 0
DWIDTH 7 0
BBX 7 7 0 0
BITMAP
44
FE
44
7C
44
44
44
ENDCHAR
STARTCHAR hbar
ENCODING 295
SWIDTH 610 0
DWIDTH 6 0
BBX 6 7 -1 0
BITMAP
40
E0
78
44
44
44
44
ENDCHAR
STARTCHAR Itilde
ENCODING 296
SWIDTH 277 0
DWIDTH 3 0
BBX 4 10 0 0
BITMAP
50
A0
00
40
40
40
40
40
40
40
ENDCHAR
STARTCHAR itilde
ENCODING 297
SWIDTH 277 0
DWIDTH 3 0
BBX 4 8 0 0
BITMAP
50
A0
00
40
40
40
40
40
ENDCHAR
STARTCHAR Imacron
ENCODING 298
SWIDTH 277 0
DWIDTH 3 0
BBX 3 9 0 0
BITMAP
E0
00
40
40
40
40
40
40
40
ENDCHAR
STARTCHAR imacron
ENCODING 299
SWIDTH 277 0
DWIDTH 3 0
BBX 3 7 0 0
BITMAP
E0
00
40
40
40
40
40
ENDCHAR
STARTCHAR Ibreve
ENCODING 300
SWIDTH 277 0
DWIDTH 3 0
BBX 4 10 0 0
BITMAP
90
60
00
40
40
40
40
40
40
40
ENDCHAR
STARTCHAR ibreve
ENCODING 301
SWIDTH 277 0
DWIDTH 3 0
BBX 4 8 0 0
BITMAP
90
60
00
40
40
40
40
40
ENDCHAR
STARTCHAR Iogonek
ENCODING 302
SWIDTH 277 0
DWIDTH 3 0
BBX 2 10 0 -3
BITMAP
40
40
40
40
40
40
40
40
80
40
ENDCHAR
STARTCHAR iogonek
ENCODING 303
SWIDTH 277 0
DWIDTH 3 0
BBX 2 10 0 -3
BITMAP
40
00
40
40
40
40
40
40
80
40
ENDCHAR
STARTCHAR Idotaccent
ENCODING 304
SWIDTH 277 0
DWIDTH 3 0
BBX 1 9 1 0
BITMAP
80
00
80
80
80
80
80
80
80
ENDCHAR
STARTCHAR dotlessi
ENCODING 305
SWIDTH 277 0
DWIDTH 3 0
BBX 1 5 1 0
BITMAP
80
80
80
80
80
ENDCHAR
STARTCHAR IJ
ENCODING 306
SWIDTH 784 0
DWIDTH 8 0
BBX 6 7 1 0
BITMAP
9C
84
84
84
84
C4
B8
ENDCHAR
STARTCHAR ij
ENCODING 307
SWIDTH 556 0
DWIDTH 6 0
BBX 3 10 1 -3
BITMAP
A0
00
A0
A0
A0
A0
A0
20
20
40
ENDCHAR
STARTCHAR Jcircumflex
ENCODING 308
SWIDTH 556 0
DWIDTH 6 0
BBX 5 10 0 0
BITMAP
10
28
00
38
08
08
08
08
88
70
ENDCHAR
STARTCHAR jcircumflex
ENCODING 309
SWIDTH 277 0
DWIDTH 4 0
BBX 3 11 0 -3
BITMAP
40
A0
00
40
40
40
40
40
40
40
80
ENDCHAR
STARTCHAR Kcommaaccent
ENCODING 310
SWIDTH 722 0
DWIDTH 7 0
BBX 5 10 1 -3
BITMAP
88
90
A0
C0
A0
90
88
00
20
20
ENDCHAR
STARTCHAR kcommaaccent
ENCODING 311
SWIDTH 556 0
DWIDTH 6 0
BBX 5 10 0 -3
BITMAP
80
80
90
A0
E0
90
88
00
20
20
ENDCHAR
STARTCHAR kgreenlandic
ENCODING 312
SWIDTH 556 0
DWIDTH 6 0
BBX 5 5 0 0
BITMAP
90
A0
E0
90
88
ENDCHAR
STARTCHAR Lacute
ENCODING 313
SWIDTH 610 0
DWIDTH 6 0
BBX 4 10 1 0
BITMAP
20
40
00
80
80
80
80
80
80
F0
ENDCHAR
STARTCHAR lacute
ENCODING 314
SWIDTH 277 0
DWIDTH 3 0
BBX 2 10 1 0
BITMAP
40
80
00
80
80
80
80
80
80
80
ENDCHAR
STARTCHAR Lcommaaccent
ENCODING 315
SWIDTH 610 0
DWIDTH 6 0
BBX 4 10 1 -3
BITMAP
80
80
80
80
80
80
F0
00
20
20
ENDCHAR
STARTCHAR lcommaaccent
ENCODING 316
SWIDTH 277 0
DWIDTH 3 0
BBX 1 10 1 -3
BITMAP
80
80
80
80
80
80
80
00
80
80
ENDCHAR
STARTCHAR Lcaron
ENCODING 317
SWIDTH 610 0
DWIDTH 6 0
BBX 4 7 1 0
BITMAP
90
90
80
80
80
80
F0
ENDCHAR
STARTCHAR lcaron
ENCODING 318
SWIDTH 385 0
DWIDTH 4 0
BBX 3 7 1 0
BITMAP
A0
A0
80
80
80
80
80
ENDCHAR
STARTCHAR Ldot
ENCODING 319
SWIDTH 610 0
DWIDTH 6 0
BBX 4 7 1 0
BITMAP
80
80
80
A0
80
80
F0
ENDCHAR
STARTCHAR ldot
ENCODING 320
SWIDTH 479 0
DWIDTH 5 0
BBX 3 7 1 0
BITMAP
80
80
80
A0
80
80
80
ENDCHAR
STARTCHAR Lslash
ENCODING 321
SWIDTH 610 0
DWIDTH 6 0
BBX 5 7 0 0
BITMAP
40
40
50
60
C0
40
78
ENDCHAR
STARTCHAR lslash
ENCODING 322
SWIDTH 277 0
DWIDTH 3 0
BBX 3 7 0 0
BITMAP
40
40
60
40
C0
40
40
ENDCHAR
STARTCHAR Nacute
ENCODING 323
SWIDTH 722 0
DWIDTH 7 0
BBX 5 10 1 0
BITMAP
10
20
00
88
C8
C8
A8
98
98
88
ENDCHAR
STARTCHAR nacute
ENCODING 324
SWIDTH 610 0
DWIDTH 6 0
BBX 5 8 0 0
BITMAP
10
20
00
F0
88
88
88
88
ENDCHAR
STARTCHAR Ncommaaccent
ENCODING 325
SWIDTH 722 0
DWIDTH 7 0
BBX 5 10 1 -3
BITMAP
88
C8
C8
A8
98
98
88
00
20
20
ENDCHAR
STARTCHAR ncommaaccent
ENCODING 326
SWIDTH 610 0
DWIDTH 6 0
BBX 5 8 0 -3
BITMAP
F0
88
88
88
88
00
20
20
ENDCHAR
STARTCHAR Ncaron
ENCODING 327
SWIDTH 722 0
DWIDTH 7 0
BBX 5 10 1 0
BITMAP
50
20
00
88
C8
C8
A8
98
98
88
ENDCHAR
STARTCHAR ncaron
ENCODING 328
SWIDTH 610 0
DWIDTH 6 0
BBX 5 8 0 0
BITMAP
50
20
00
F0
88
88
88
88
ENDCHAR
STARTCHAR napostrophe
ENCODING 329
SWIDTH 708 0
DWIDTH 7 0
BBX 7 7 -1 0
BITMAP
C0
40
BC
22
22
22
22
ENDCHAR
STARTCHAR Eng
ENCODING 330
SWIDTH 723 0
DWIDTH 7 0
BBX 5 7 1 0
BITMAP
B0
C8
88
88
88
88
B0
ENDCHAR
STARTCHAR eng
ENCODING 331
SWIDTH 610 0
DWIDTH 6 0
BBX 5 8 0 -3
BITMAP
F0
88
88
88
88
08
08
10
ENDCHAR
STARTCHAR Omacron
ENCODING 332
SWIDTH 777 0
DWIDTH 8 0
BBX 6 9 1 0
BITMAP
38
00
78
84
84
84
84
84
78
ENDCHAR
STARTCHAR omacron
ENCODING 333
SWIDTH 610 0
DWIDTH 6 0
BBX 5 7 0 0
BITMAP
70
00
70
88
88
88
70
ENDCHAR
STARTCHAR Obreve
ENCODING 334
SWIDTH 777 0
DWIDTH 8 0
BBX 6 10 1 0
BITMAP
48
30
00
78
84
84
84
84
84
78
ENDCHAR
STARTCHAR obreve
ENCODING 335
SWIDTH 610 0
DWIDTH 6 0
BBX 5 8 0 0
BITMAP
48
30
00
70
88
88
88
70
ENDCHAR
STARTCHAR Ohungarumlaut
ENCODING 336
SWIDTH 777 0
DWIDTH 8 0
BBX 6 10 1 0
BITMAP
14
28
00
78
84
84
84
84
84
78
ENDCHAR
STARTCHAR ohungarumlaut
ENCODING 337
SWIDTH 610 0
DWIDTH 6 0
BBX 5 8 0 0
BITMAP
28
50
00
70
88
88
88
70
ENDCHAR
STARTCHAR OE
ENCODING 338
SWIDTH 1000 0
DWIDTH 10 0
BBX 8 7 1 0
BITMAP
7F
88
88
8F
88
88
7F
ENDCHAR
STARTCHAR oe
ENCODING 339
SWIDTH 943 0
DWIDTH 9 0
BBX 8 5 0 0
BITMAP
76
89
8F
88
77
ENDCHAR
STARTCHAR Racute
ENCODING 340
SWIDTH 722 0
DWIDTH 7 0
BBX 6 10 1 0
BITMAP
10
20
00
F0
88
88
F0
90
88
84
ENDCHAR
STARTCHAR racute
ENCODING 341
SWIDTH 389 0
DWIDTH 4 0
BBX 3 8 0 0
BITMAP
20
40
00
E0
80
80
80
80
ENDCHAR
STARTCHAR Rcommaaccent
ENCODING 342
SWIDTH 722 0
DWIDTH 7 0
BBX 6 10 1 -3
BITMAP
F0
88
88
F0
90
88
84
00
10
10
ENDCHAR
STARTCHAR rcommaaccent
ENCODING 343
SWIDTH 389 0
DWIDTH 4 0
BBX 3 8 0 -3
BITMAP
E0
80
80
80
80
00
80
80
ENDCHAR
STARTCHAR Rcaron
ENCODING 344
SWIDTH 722 0
DWIDTH 7 0
BBX 6 10 1 0
BITMAP
50
20
00
F0
88
88
F0
90
88
84
ENDCHAR
STARTCHAR rcaron
ENCODING 345
SWIDTH 389 0
DWIDTH 4 0
BBX 3 8 0 0
BITMAP
A0
40
00
E0
80
80
80
80
ENDCHAR
STARTCHAR Sacute
ENCODING 346
SWIDTH 666 0
DWIDTH 7 0
BBX 5 10 1 0
BITMAP
10
20
00
70
88
80
70
08
88
70
ENDCHAR
STARTCHAR sacute
ENCODING 347
SWIDTH 556 0
DWIDTH 6 0
BBX 5 8 0 0
BITMAP
10
20
00
78
80
70
08
F8
ENDCHAR
STARTCHAR Scircumflex
ENCODING 348
SWIDTH 666 0
DWIDTH 7 0
BBX 5 10 1 0
BITMAP
20
50
00
70
88
80
70
08
88
70
ENDCHAR
STARTCHAR scircumflex
ENCODING 349
SWIDTH 556 0
DWIDTH 6 0
BBX 5 8 0 0
BITMAP
20
50
00
78
80
70
08
F8
ENDCHAR
STARTCHAR Scedilla
ENCODING 350
SWIDTH 666 0
DWIDTH 7 0
BBX 5 10 1 -3
BITMAP
70
88
80
70
08
88
70
20
10
20
ENDCHAR
STARTCHAR scedilla
ENCODING 351
SWIDTH 556 0
DWIDTH 6 0
BBX 5 8 0 -3
BITMAP
78
80
70
08
F8
20
10
20
ENDCHAR
STARTCHAR Scaron
ENCODING 352
SWIDTH 666 0
DWIDTH 7 0
BBX 5 10 1 0
BITMAP
50
20
00
70
88
80
70
08
88
70
ENDCHAR
STARTCHAR scaron
ENCODING 353
SWIDTH 556 0
DWIDTH 6 0
BBX 5 8 0 0
BITMAP
50
20
00
78
80
70
08
F8
ENDCHAR
STARTCHAR Tcommaaccent
ENCODING 354
SWIDTH 610 0
DWIDTH 5 0
BBX 5 10 1 -3
BITMAP
F8
20
20
20
20
20
20
20
10
20
ENDCHAR
STARTCHAR tcommaaccent
ENCODING 355
SWIDTH 333 0
DWIDTH 3 0
BBX 3 9 0 -3
BITMAP
40
E0
40
40
40
20
40
20
40
ENDCHAR
STARTCHAR Tcaron
ENCODING 356
SWIDTH 610 0
DWIDTH 5 0
BBX 5 10 0 0
BITMAP
50
20
00
F8
20
20
20
20
20
20
ENDCHAR
STARTCHAR tcaron
ENCODING 357
SWIDTH 479 0
DWIDTH 5 0
BBX 5 7 0 0
BITMAP
08
48
E0
40
40
40
20
ENDCHAR
STARTCHAR Tbar
ENCODING 358
SWIDTH 610 0
DWIDTH 5 0
BBX 5 7 0 0
BITMAP
F8
20
20
70
20
20
20
ENDCHAR
STARTCHAR tbar
ENCODING 359
SWIDTH 333 0
DWIDTH 3 0
BBX 3 6 0 0
BITMAP
40
E0
40
E0
40
20
ENDCHAR
STARTCHAR Utilde
ENCODING 360
SWIDTH 722 0
DWIDTH 7 0
BBX 5 10 1 0
BITMAP
28
50
00
88
88
88
88
88
88
70
ENDCHAR
STARTCHAR utilde
ENCODING 361
SWIDTH 610 0
DWIDTH 6 0
BBX 5 8 0 0
BITMAP
28
50
00
88
88
88
88
78
ENDCHAR
STARTCHAR Umacron
ENCODING 362
SWIDTH 722 0
DWIDTH 7 0
BBX 5 9 1 0
BITMAP
70
00
88
88
88
88
88
88
70
ENDCHAR
STARTCHAR umacron
ENCODING 363
SWIDTH 610 0
DWIDTH 6 0
BBX 5 7 0 0
BITMAP
70
00
88
88
88
88
78
ENDCHAR
STARTCHAR Ubreve
ENCODING 364
SWIDTH 722 0
DWIDTH 7 0
BBX 5 10 1 0
BITMAP
48
30
00
88
88
88
88
88
88
70
ENDCHAR
STARTCHAR ubreve
ENCODING 365
SWIDTH 610 0
DWIDTH 6 0
BBX 6 8 0 0
BITMAP
24
18
00
88
88
88
88
78
ENDCHAR
STARTCHAR Uring
ENCODING 366
SWIDTH 722 0
DWIDTH 7 0
BBX 5 11 1 0
BITMAP
20
50
20
00
88
88
88
88
88
88
70
ENDCHAR
STARTCHAR uring
ENCODING 367
SWIDTH 610 0
DWIDTH 6 0
BBX 5 9 0 0
BITMAP
10
28
10
00
88
88
88
88
78
ENDCHAR
STARTCHAR Uhungarumlaut
ENCODING 368
SWIDTH 722 0
DWIDTH 7 0
BBX 5 10 1 0
BITMAP
28
50
00
88
88
88
88
88
88
70
ENDCHAR
STARTCHAR uhungarumlaut
ENCODING 369
SWIDTH 610 0
DWIDTH 6 0
BBX 6 8 0 0
BITMAP
14
28
00
88
88
88
88
78
ENDCHAR
STARTCHAR Uogonek
ENCODING 370
SWIDTH 722 0
DWIDTH 7 0
BBX 5 10 1 -3
BITMAP
88
88
88
88
88
88
70
10
20
10
ENDCHAR
STARTCHAR uogonek
ENCODING 371
SWIDTH 610 0
DWIDTH 6 0
BBX 6 8 0 -3
BITMAP
88
88
88
88
78
04
08
04
ENDCHAR
STARTCHAR Wcircumflex
ENCODING 372
SWIDTH 943 0
DWIDTH 9 0
BBX 10 10 0 0
BITMAP
0800
1400
0000
88C0
8C80
5480
5480
5300
3300
2200
ENDCHAR
STARTCHAR wcircumflex
ENCODING 373
SWIDTH 777 0
DWIDTH 9 0
BBX 9 8 0 0
BITMAP
0800
1400
0000
8880
8880
5500
5500
2200
ENDCHAR
STARTCHAR Ycircumflex
ENCODING 374
SWIDTH 666 0
DWIDTH 7 0
BBX 5 10 1 0
BITMAP
20
50
00
88
50
50
20
20
20
20
ENDCHAR
STARTCHAR ycircumflex
ENCODING 375
SWIDTH 556 0
DWIDTH 5 0
BBX 5 11 0 -3
BITMAP
20
50
00
88
88
50
50
20
20
20
C0
ENDCHAR
STARTCHAR Ydieresis
ENCODING 376
SWIDTH 666 0
DWIDTH 7 0
BBX 5 9 1 0
BITMAP
50
00
88
50
50
20
20
20
20
ENDCHAR
STARTCHAR Zacute
ENCODING 377
SWIDTH 610 0
DWIDTH 6 0
BBX 4 10 1 0
BITMAP
10
20
00
F0
10
20
20
40
80
F0
ENDCHAR
STARTCHAR zacute
ENCODING 378
SWIDTH 500 0
DWIDTH 5 0
BBX 3 8 1 0
BITMAP
20
40
00
E0
20
40
80
E0
ENDCHAR
STARTCHAR Zdotaccent
ENCODING 379
SWIDTH 610 0
DWIDTH 6 0
BBX 4 9 1 0
BITMAP
20
00
F0
10
20
20
40
80
F0
ENDCHAR
STARTCHAR zdotaccent
ENCODING 380
SWIDTH 500 0
DWIDTH 5 0
BBX 3 7 1 0
BITMAP
40
00
E0
20
40
80
E0
ENDCHAR
STARTCHAR Zcaron
ENCODING 381
SWIDTH 610 0
DWIDTH 6 0
BBX 4 10 1 0
BITMAP
50
20
00
F0
10
20
20
40
80
F0
ENDCHAR
STARTCHAR zcaron
ENCODING 382
SWIDTH 500 0
DWIDTH 5 0
BBX 3 8 1 0
BITMAP
A0
40
00
E0
20
40
80
E0
ENDCHAR
STARTCHAR longs
ENCODING 383
SWIDTH 277 0
DWIDTH 3 0
BBX 2 7 1 0
BITMAP
40
80
80
80
80
80
80
ENDCHAR
STARTCHAR florin
ENCODING 402
SWIDTH 556 0
DWIDTH 6 0
BBX 4 10 1 -3
BITMAP
30
40
E0
40
40
40
80
80
80
80
ENDCHAR
STARTCHAR Aringacute
ENCODING 506
SWIDTH 722 0
DWIDTH 7 0
BBX 7 11 0 0
BITMAP
08
10
10
28
10
28
28
44
7C
44
82
ENDCHAR
STARTCHAR aringacute
ENCODING 507
SWIDTH 556 0
DWIDTH 6 0
BBX 6 10 0 0
BITMAP
08
10
28
10
00
F0
08
78
88
74
ENDCHAR
STARTCHAR AEacute
ENCODING 508
SWIDTH 1000 0
DWIDTH 10 0
BBX 9 10 0 0
BITMAP
0200
0400
0000
1F80
1800
2800
2F80
7800
4800
8F80
ENDCHAR
STARTCHAR aeacute
ENCODING 509
SWIDTH 889 0
DWIDTH 9 0
BBX 8 8 0 0
BITMAP
04
08
00
EE
11
7F
90
6F
ENDCHAR
STARTCHAR Oslashacute
ENCODING 510
SWIDTH 777 0
DWIDTH 8 0
BBX 6 10 1 0
BITMAP
08
10
00
74
88
94
A4
A4
44
B8
ENDCHAR
STARTCHAR oslashacute
ENCODING 511
SWIDTH 610 0
DWIDTH 6 0
BBX 5 8 0 0
BITMAP
10
20
00
68
90
A8
48
B0
ENDCHAR
STARTCHAR Scommaaccent
ENCODING 536
SWIDTH 666 0
DWIDTH 7 0
BBX 5 10 1 -3
BITMAP
70
88
80
70
08
88
70
00
20
20
ENDCHAR
STARTCHAR scommaaccent
ENCODING 537
SWIDTH 556 0
DWIDTH 6 0
BBX 5 8 0 -3
BITMAP
78
80
70
08
F8
00
10
10
ENDCHAR
STARTCHAR uni021A
ENCODING 538
SWIDTH 610 0
DWIDTH 5 0
BBX 5 10 0 -3
BITMAP
F8
20
20
20
20
20
20
00
10
10
ENDCHAR
STARTCHAR uni021B
ENCODING 539
SWIDTH 333 0
DWIDTH 3 0
BBX 3 9 0 -3
BITMAP
40
E0
40
40
40
20
00
20
20
ENDCHAR
STARTCHAR circumflex
ENCODING 710
SWIDTH 333 0
DWIDTH 3 0
BBX 3 2 0 6
BITMAP
40
A0
ENDCHAR
STARTCHAR caron
ENCODING 711
SWIDTH 333 0
DWIDTH 3 0
BBX 3 2 0 6
BITMAP
A0
40
ENDCHAR
STARTCHAR uni02C9
ENCODING 713
SWIDTH 333 0
DWIDTH 3 0
BBX 3 1 0 6
BITMAP
E0
ENDCHAR
STARTCHAR breve
ENCODING 728
SWIDTH 333 0
DWIDTH 3 0
BBX 4 2 0 6
BITMAP
90
60
ENDCHAR
STARTCHAR dotaccent
ENCODING 729
SWIDTH 333 0
DWIDTH 3 0
BBX 1 1 1 6
BITMAP
80
ENDCHAR
STARTCHAR ring
ENCODING 730
SWIDTH 333 0
DWIDTH 3 0
BBX 3 3 0 6
BITMAP
40
A0
40
ENDCHAR
STARTCHAR ogonek
ENCODING 731
SWIDTH 333 0
DWIDTH 4 0
BBX 2 3 1 -3
BITMAP
40
80
40
ENDCHAR
STARTCHAR tilde
ENCODING 732
SWIDTH 333 0
DWIDTH 3 0
BBX 4 2 0 6
BITMAP
50
A0
ENDCHAR
STARTCHAR hungarumlaut
ENCODING 733
SWIDTH 333 0
DWIDTH 3 0
BBX 4 2 0 6
BITMAP
50
A0
ENDCHAR
STARTCHAR semicolon.dup3
ENCODING 894
SWIDTH 333 0
DWIDTH 3 0
BBX 1 7 1 -2
BITMAP
80
00
00
00
80
80
80
ENDCHAR
STARTCHAR tonos
ENCODING 900
SWIDTH 333 0
DWIDTH 3 0
BBX 2 2 0 6
BITMAP
40
80
ENDCHAR
STARTCHAR dieresistonos
ENCODING 901
SWIDTH 464 0
DWIDTH 5 0
BBX 5 2 -1 6
BITMAP
10
A8
ENDCHAR
STARTCHAR Alphatonos
ENCODING 902
SWIDTH 722 0
DWIDTH 7 0
BBX 7 7 0 0
BITMAP
50
A8
28
44
7C
44
82
ENDCHAR
STARTCHAR anoteleia
ENCODING 903
SWIDTH 333 0
DWIDTH 3 0
BBX 1 1 1 3
BITMAP
80
ENDCHAR
STARTCHAR Epsilontonos
ENCODING 904
SWIDTH 853 0
DWIDTH 9 0
BBX 8 7 0 0
BITMAP
5F
90
10
1F
10
10
1F
ENDCHAR
STARTCHAR Etatonos
ENCODING 905
SWIDTH 905 0
DWIDTH 9 0
BBX 8 7 0 0
BITMAP
51
91
11
1F
11
11
11
ENDCHAR
STARTCHAR Iotatonos
ENCODING 906
SWIDTH 473 0
DWIDTH 5 0
BBX 4 7 0 0
BITMAP
50
90
10
10
10
10
10
ENDCHAR
STARTCHAR Omicrontonos
ENCODING 908
SWIDTH 824 0
DWIDTH 8 0
BBX 8 7 -1 0
BITMAP
5E
A1
21
21
21
21
1E
ENDCHAR
STARTCHAR Upsilontonos
ENCODING 910
SWIDTH 927 0
DWIDTH 9 0
BBX 8 7 0 0
BITMAP
51
8A
0A
04
04
04
04
ENDCHAR
STARTCHAR Omegatonos
ENCODING 911
SWIDTH 837 0
DWIDTH 8 0
BBX 8 7 -1 0
BITMAP
5E
A1
21
21
21
12
3F
ENDCHAR
STARTCHAR iotadieresistonos
ENCODING 912
SWIDTH 277 0
DWIDTH 3 0
BBX 5 8 -1 0
BITMAP
10
A8
00
40
40
40
40
20
ENDCHAR
STARTCHAR Alpha
ENCODING 913
SWIDTH 722 0
DWIDTH 7 0
BBX 7 7 0 0
BITMAP
10
28
28
44
7C
44
82
ENDCHAR
STARTCHAR Beta
ENCODING 914
SWIDTH 722 0
DWIDTH 7 0
BBX 5 7 1 0
BITMAP
F0
88
88
F0
88
88
F0
ENDCHAR
STARTCHAR Gamma
ENCODING 915
SWIDTH 601 0
DWIDTH 6 0
BBX 5 7 1 0
BITMAP
F8
80
80
80
80
80
80
ENDCHAR
STARTCHAR Delta
ENCODING 916
SWIDTH 718 0
DWIDTH 7 0
BBX 5 7 1 0
BITMAP
20
20
50
50
50
88
F8
ENDCHAR
STARTCHAR Epsilon
ENCODING 917
SWIDTH 666 0
DWIDTH 7 0
BBX 5 7 1 0
BITMAP
F8
80
80
F8
80
80
F8
ENDCHAR
STARTCHAR Zeta
ENCODING 918
SWIDTH 610 0
DWIDTH 6 0
BBX 4 7 1 0
BITMAP
F0
10
20
20
40
80
F0
ENDCHAR
STARTCHAR Eta
ENCODING 919
SWIDTH 722 0
DWIDTH 7 0
BBX 5 7 1 0
BITMAP
88
88
88
F8
88
88
88
ENDCHAR
STARTCHAR Theta
ENCODING 920
SWIDTH 777 0
DWIDTH 8 0
BBX 6 7 1 0
BITMAP
78
84
84
B4
84
84
78
ENDCHAR
STARTCHAR Iota
ENCODING 921
SWIDTH 277 0
DWIDTH 3 0
BBX 1 7 1 0
BITMAP
80
80
80
80
80
80
80
ENDCHAR
STARTCHAR Kappa
ENCODING 922
SWIDTH 722 0
DWIDTH 7 0
BBX 5 7 1 0
BITMAP
88
90
A0
C0
A0
90
88
ENDCHAR
STARTCHAR Lambda
ENCODING 923
SWIDTH 666 0
DWIDTH 7 0
BBX 7 7 0 0
BITMAP
10
10
28
28
44
44
82
ENDCHAR
STARTCHAR Mu
ENCODING 924
SWIDTH 833 0
DWIDTH 9 0
BBX 7 7 1 0
BITMAP
82
C6
C6
AA
AA
92
92
ENDCHAR
STARTCHAR Nu
ENCODING 925
SWIDTH 722 0
DWIDTH 7 0
BBX 5 7 1 0
BITMAP
88
C8
C8
A8
98
98
88
ENDCHAR
STARTCHAR Xi
ENCODING 926
SWIDTH 643 0
DWIDTH 6 0
BBX 4 7 1 0
BITMAP
F0
00
00
60
00
00
F0
ENDCHAR
STARTCHAR Omicron
ENCODING 927
SWIDTH 777 0
DWIDTH 8 0
BBX 6 7 1 0
BITMAP
78
84
84
84
84
84
78
ENDCHAR
STARTCHAR Pi
ENCODING 928
SWIDTH 722 0
DWIDTH 7 0
BBX 5 7 1 0
BITMAP
F8
88
88
88
88
88
88
ENDCHAR
STARTCHAR Rho
ENCODING 929
SWIDTH 666 0
DWIDTH 7 0
BBX 5 7 1 0
BITMAP
F0
88
88
F0
80
80
80
ENDCHAR
STARTCHAR Sigma
ENCODING 931
SWIDTH 600 0
DWIDTH 6 0
BBX 4 7 1 0
BITMAP
F0
40
20
10
20
40
F0
ENDCHAR
STARTCHAR Tau
ENCODING 932
SWIDTH 610 0
DWIDTH 5 0
BBX 5 7 0 0
BITMAP
F8
20
20
20
20
20
20
ENDCHAR
STARTCHAR Upsilon
ENCODING 933
SWIDTH 666 0
DWIDTH 7 0
BBX 5 7 1 0
BITMAP
88
50
50
20
20
20
20
ENDCHAR
STARTCHAR Phi
ENCODING 934
SWIDTH 820 0
DWIDTH 7 0
BBX 5 7 1 0
BITMAP
20
70
A8
A8
A8
70
20
ENDCHAR
STARTCHAR Chi
ENCODING 935
SWIDTH 666 0
DWIDTH 7 0
BBX 5 7 1 0
BITMAP
88
50
50
20
50
50
88
ENDCHAR
STARTCHAR Psi
ENCODING 936
SWIDTH 809 0
DWIDTH 7 0
BBX 5 7 1 0
BITMAP
A8
A8
A8
A8
70
20
20
ENDCHAR
STARTCHAR Omega
ENCODING 937
SWIDTH 801 0
DWIDTH 8 0
BBX 6 7 1 0
BITMAP
78
84
84
84
84
48
FC
ENDCHAR
STARTCHAR Iotadieresis
ENCODING 938
SWIDTH 277 0
DWIDTH 3 0
BBX 3 9 0 0
BITMAP
A0
00
40
40
40
40
40
40
40
ENDCHAR
STARTCHAR Upsilondieresis
ENCODING 939
SWIDTH 666 0
DWIDTH 7 0
BBX 5 9 1 0
BITMAP
50
00
88
50
50
20
20
20
20
ENDCHAR
STARTCHAR alphatonos
ENCODING 940
SWIDTH 614 0
DWIDTH 6 0
BBX 5 8 0 0
BITMAP
10
20
00
68
90
90
90
68
ENDCHAR
STARTCHAR epsilontonos
ENCODING 941
SWIDTH 451 0
DWIDTH 5 0
BBX 4 8 0 0
BITMAP
10
20
00
70
80
60
80
70
ENDCHAR
STARTCHAR etatonos
ENCODING 942
SWIDTH 610 0
DWIDTH 6 0
BBX 5 11 0 -3
BITMAP
10
20
00
F0
88
88
88
88
08
08
08
ENDCHAR
STARTCHAR iotatonos
ENCODING 943
SWIDTH 277 0
DWIDTH 3 0
BBX 2 8 0 0
BITMAP
40
80
00
80
80
80
80
40
ENDCHAR
STARTCHAR upsilondieresistonos
ENCODING 944
SWIDTH 582 0
DWIDTH 6 0
BBX 5 8 0 0
BITMAP
10
A8
00
88
88
88
88
70
ENDCHAR
STARTCHAR alpha
ENCODING 945
SWIDTH 614 0
DWIDTH 6 0
BBX 5 5 0 0
BITMAP
68
90
90
90
68
ENDCHAR
STARTCHAR beta
ENCODING 946
SWIDTH 610 0
DWIDTH 6 0
BBX 5 10 0 -3
BITMAP
70
88
88
B0
88
88
F0
80
80
80
ENDCHAR
STARTCHAR gamma
ENCODING 947
SWIDTH 556 0
DWIDTH 6 0
BBX 5 8 0 -3
BITMAP
88
88
50
50
20
20
20
20
ENDCHAR
STARTCHAR delta
ENCODING 948
SWIDTH 606 0
DWIDTH 6 0
BBX 5 7 0 0
BITMAP
F8
80
70
88
88
88
70
ENDCHAR
STARTCHAR epsilon
ENCODING 949
SWIDTH 474 0
DWIDTH 5 0
BBX 4 5 0 0
BITMAP
70
80
60
80
70
ENDCHAR
STARTCHAR zeta
ENCODING 950
SWIDTH 460 0
DWIDTH 5 0
BBX 4 9 0 -2
BITMAP
F0
20
40
40
80
80
60
10
10
ENDCHAR
STARTCHAR eta
ENCODING 951
SWIDTH 610 0
DWIDTH 6 0
BBX 5 8 0 -3
BITMAP
F0
88
88
88
88
08
08
08
ENDCHAR
STARTCHAR theta
ENCODING 952
SWIDTH 540 0
DWIDTH 5 0
BBX 4 7 0 0
BITMAP
60
90
90
F0
90
90
60
ENDCHAR
STARTCHAR iota
ENCODING 953
SWIDTH 277 0
DWIDTH 3 0
BBX 2 5 0 0
BITMAP
80
80
80
80
40
ENDCHAR
STARTCHAR kappa
ENCODING 954
SWIDTH 557 0
DWIDTH 6 0
BBX 5 5 0 0
BITMAP
90
A0
E0
90
88
ENDCHAR
STARTCHAR lambda
ENCODING 955
SWIDTH 556 0
DWIDTH 6 0
BBX 5 8 0 0
BITMAP
C0
20
20
20
70
50
88
88
ENDCHAR
STARTCHAR mu
ENCODING 956
SWIDTH 611 0
DWIDTH 6 0
BBX 5 8 0 -3
BITMAP
88
88
88
88
F8
80
80
80
ENDCHAR
STARTCHAR nu
ENCODING 957
SWIDTH 556 0
DWIDTH 7 0
BBX 6 5 0 0
BITMAP
84
84
44
48
30
ENDCHAR
STARTCHAR xi
ENCODING 958
SWIDTH 445 0
DWIDTH 4 0
BBX 3 9 0 -2
BITMAP
E0
40
80
40
80
80
40
20
20
ENDCHAR
STARTCHAR omicron
ENCODING 959
SWIDTH 610 0
DWIDTH 6 0
BBX 5 5 0 0
BITMAP
70
88
88
88
70
ENDCHAR
STARTCHAR pi
ENCODING 960
SWIDTH 765 0
DWIDTH 8 0
BBX 7 5 0 0
BITMAP
FE
44
44
44
82
ENDCHAR
STARTCHAR rho
ENCODING 961
SWIDTH 618 0
DWIDTH 6 0
BBX 5 8 0 -3
BITMAP
70
88
88
88
F0
80
80
80
ENDCHAR
STARTCHAR sigma1
ENCODING 962
SWIDTH 520 0
DWIDTH 5 0
BBX 4 7 0 -2
BITMAP
70
80
80
80
60
10
10
ENDCHAR
STARTCHAR sigma
ENCODING 963
SWIDTH 684 0
DWIDTH 7 0
BBX 6 5 0 0
BITMAP
7C
88
88
88
70
ENDCHAR
STARTCHAR tau
ENCODING 964
SWIDTH 446 0
DWIDTH 4 0
BBX 3 5 0 0
BITMAP
E0
40
40
40
20
ENDCHAR
STARTCHAR upsilon
ENCODING 965
SWIDTH 582 0
DWIDTH 6 0
BBX 5 5 0 0
BITMAP
88
88
88
88
70
ENDCHAR
STARTCHAR phi
ENCODING 966
SWIDTH 715 0
DWIDTH 6 0
BBX 5 8 0 -3
BITMAP
70
A8
A8
A8
70
20
20
20
ENDCHAR
STARTCHAR chi
ENCODING 967
SWIDTH 575 0
DWIDTH 6 0
BBX 5 8 0 -3
BITMAP
88
50
50
20
50
50
88
88
ENDCHAR
STARTCHAR psi
ENCODING 968
SWIDTH 753 0
DWIDTH 8 0
BBX 7 9 0 -3
BITMAP
10
92
92
92
92
7C
10
10
10
ENDCHAR
STARTCHAR omega
ENCODING 969
SWIDTH 844 0
DWIDTH 8 0
BBX 7 5 0 0
BITMAP
44
82
92
92
6C
ENDCHAR
STARTCHAR iotadieresis
ENCODING 970
SWIDTH 277 0
DWIDTH 3 0
BBX 3 7 0 0
BITMAP
A0
00
80
80
80
80
40
ENDCHAR
STARTCHAR upsilondieresis
ENCODING 971
SWIDTH 582 0
DWIDTH 6 0
BBX 5 7 0 0
BITMAP
50
00
88
88
88
88
70
ENDCHAR
STARTCHAR omicrontonos
ENCODING 972
SWIDTH 610 0
DWIDTH 6 0
BBX 5 8 0 0
BITMAP
10
20
00
70
88
88
88
70
ENDCHAR
STARTCHAR upsilontonos
ENCODING 973
SWIDTH 582 0
DWIDTH 6 0
BBX 5 8 0 0
BITMAP
10
20
00
88
88
88
88
70
ENDCHAR
STARTCHAR omegatonos
ENCODING 974
SWIDTH 844 0
DWIDTH 8 0
BBX 7 8 0 0
BITMAP
08
10
00
44
82
92
92
6C
ENDCHAR
STARTCHAR afii10023
ENCODING 1025
SWIDTH 668 0
DWIDTH 7 0
BBX 5 9 1 0
BITMAP
50
00
F8
80
80
F8
80
80
F8
ENDCHAR
STARTCHAR afii10051
ENCODING 1026
SWIDTH 885 0
DWIDTH 9 0
BBX 8 7 0 0
BITMAP
F8
20
3E
21
21
21
2E
ENDCHAR
STARTCHAR afii10052
ENCODING 1027
SWIDTH 566 0
DWIDTH 6 0
BBX 4 10 1 0
BITMAP
20
40
00
F0
80
80
80
80
80
80
ENDCHAR
STARTCHAR afii10053
ENCODING 1028
SWIDTH 711 0
DWIDTH 7 0
BBX 5 7 1 0
BITMAP
70
88
80
E0
80
88
70
ENDCHAR
STARTCHAR afii10054
ENCODING 1029
SWIDTH 666 0
DWIDTH 7 0
BBX 5 7 1 0
BITMAP
70
88
80
70
08
88
70
ENDCHAR
STARTCHAR afii10055
ENCODING 1030
SWIDTH 277 0
DWIDTH 3 0
BBX 1 7 1 0
BITMAP
80
80
80
80
80
80
80
ENDCHAR
STARTCHAR afii10056
ENCODING 1031
SWIDTH 275 0
DWIDTH 3 0
BBX 3 9 0 0
BITMAP
A0
00
40
40
40
40
40
40
40
ENDCHAR
STARTCHAR afii10057
ENCODING 1032
SWIDTH 556 0
DWIDTH 6 0
BBX 5 7 0 0
BITMAP
38
08
08
08
08
88
70
ENDCHAR
STARTCHAR afii10058
ENCODING 1033
SWIDTH 1093 0
DWIDTH 11 0
BBX 9 7 1 0
BITMAP
7800
4800
4800
4F00
4880
8880
8F00
ENDCHAR
STARTCHAR afii10059
ENCODING 1034
SWIDTH 1062 0
DWIDTH 11 0
BBX 9 7 1 0
BITMAP
8800
8800
8800
FF00
8880
8880
8F00
ENDCHAR
STARTCHAR afii10060
ENCODING 1035
SWIDTH 875 0
DWIDTH 9 0
BBX 8 7 0 0
BITMAP
F8
20
3E
21
21
21
21
ENDCHAR
STARTCHAR afii10061
ENCODING 1036
SWIDTH 610 0
DWIDTH 6 0
BBX 4 10 1 0
BITMAP
10
20
00
90
A0
A0
C0
A0
A0
90
ENDCHAR
STARTCHAR afii10062
ENCODING 1038
SWIDTH 622 0
DWIDTH 6 0
BBX 5 10 1 0
BITMAP
50
20
00
88
88
50
50
20
20
C0
ENDCHAR
STARTCHAR afii10145
ENCODING 1039
SWIDTH 718 0
DWIDTH 7 0
BBX 5 9 1 -2
BITMAP
88
88
88
88
88
88
F8
20
20
ENDCHAR
STARTCHAR afii10017
ENCODING 1040
SWIDTH 722 0
DWIDTH 7 0
BBX 7 7 0 0
BITMAP
10
28
28
44
7C
44
82
ENDCHAR
STARTCHAR afii10018
ENCODING 1041
SWIDTH 718 0
DWIDTH 7 0
BBX 5 7 1 0
BITMAP
F8
80
80
F0
88
88
F0
ENDCHAR
STARTCHAR afii10019
ENCODING 1042
SWIDTH 722 0
DWIDTH 7 0
BBX 5 7 1 0
BITMAP
F0
88
88
F0
88
88
F0
ENDCHAR
STARTCHAR afii10020
ENCODING 1043
SWIDTH 566 0
DWIDTH 6 0
BBX 4 7 1 0
BITMAP
F0
80
80
80
80
80
80
ENDCHAR
STARTCHAR afii10021
ENCODING 1044
SWIDTH 712 0
DWIDTH 7 0
BBX 7 9 0 -2
BITMAP
3C
24
24
24
44
44
FE
82
82
ENDCHAR
STARTCHAR afii10022
ENCODING 1045
SWIDTH 666 0
DWIDTH 7 0
BBX 5 7 1 0
BITMAP
F8
80
80
F8
80
80
F8
ENDCHAR
STARTCHAR afii10024
ENCODING 1046
SWIDTH 903 0
DWIDTH 9 0
BBX 7 7 1 0
BITMAP
92
54
54
38
54
54
92
ENDCHAR
STARTCHAR afii10025
ENCODING 1047
SWIDTH 626 0
DWIDTH 6 0
BBX 4 7 1 0
BITMAP
60
90
10
20
10
90
60
ENDCHAR
STARTCHAR afii10026
ENCODING 1048
SWIDTH 718 0
DWIDTH 7 0
BBX 5 7 1 0
BITMAP
88
98
98
A8
C8
C8
88
ENDCHAR
STARTCHAR afii10027
ENCODING 1049
SWIDTH 718 0
DWIDTH 7 0
BBX 5 10 1 0
BITMAP
50
20
00
88
98
98
A8
C8
C8
88
ENDCHAR
STARTCHAR afii10028
ENCODING 1050
SWIDTH 610 0
DWIDTH 6 0
BBX 4 7 1 0
BITMAP
90
A0
A0
C0
A0
A0
90
ENDCHAR
STARTCHAR afii10029
ENCODING 1051
SWIDTH 701 0
DWIDTH 7 0
BBX 5 7 1 0
BITMAP
78
48
48
48
48
88
88
ENDCHAR
STARTCHAR afii10030
ENCODING 1052
SWIDTH 833 0
DWIDTH 9 0
BBX 7 7 1 0
BITMAP
82
C6
C6
AA
AA
92
92
ENDCHAR
STARTCHAR afii10031
ENCODING 1053
SWIDTH 722 0
DWIDTH 7 0
BBX 5 7 1 0
BITMAP
88
88
88
F8
88
88
88
ENDCHAR
STARTCHAR afii10032
ENCODING 1054
SWIDTH 777 0
DWIDTH 8 0
BBX 6 7 1 0
BITMAP
78
84
84
84
84
84
78
ENDCHAR
STARTCHAR afii10033
ENCODING 1055
SWIDTH 718 0
DWIDTH 7 0
BBX 5 7 1 0
BITMAP
F8
88
88
88
88
88
88
ENDCHAR
STARTCHAR afii10034
ENCODING 1056
SWIDTH 666 0
DWIDTH 7 0
BBX 5 7 1 0
BITMAP
F0
88
88
F0
80
80
80
ENDCHAR
STARTCHAR afii10035
ENCODING 1057
SWIDTH 722 0
DWIDTH 7 0
BBX 5 7 1 0
BITMAP
70
88
80
80
80
88
70
ENDCHAR
STARTCHAR afii10036
ENCODING 1058
SWIDTH 610 0
DWIDTH 5 0
BBX 5 7 0 0
BITMAP
F8
20
20
20
20
20
20
ENDCHAR
STARTCHAR afii10037
ENCODING 1059
SWIDTH 622 0
DWIDTH 6 0
BBX 5 7 1 0
BITMAP
88
88
50
50
20
20
C0
ENDCHAR
STARTCHAR afii10038
ENCODING 1060
SWIDTH 853 0
DWIDTH 9 0
BBX 7 7 1 0
BITMAP
10
7C
92
92
92
7C
10
ENDCHAR
STARTCHAR afii10039
ENCODING 1061
SWIDTH 666 0
DWIDTH 7 0
BBX 5 7 1 0
BITMAP
88
50
50
20
50
50
88
ENDCHAR
STARTCHAR afii10040
ENCODING 1062
SWIDTH 730 0
DWIDTH 7 0
BBX 6 9 1 -2
BITMAP
88
88
88
88
88
88
FC
04
04
ENDCHAR
STARTCHAR afii10041
ENCODING 1063
SWIDTH 702 0
DWIDTH 7 0
BBX 5 7 1 0
BITMAP
88
88
88
88
78
08
08
ENDCHAR
STARTCHAR afii10042
ENCODING 1064
SWIDTH 1004 0
DWIDTH 11 0
BBX 9 7 1 0
BITMAP
8880
8880
8880
8880
8880
8880
FF80
ENDCHAR
STARTCHAR afii10043
ENCODING 1065
SWIDTH 1019 0
DWIDTH 11 0
BBX 10 9 1 -2
BITMAP
8880
8880
8880
8880
8880
8880
FFC0
0040
0040
ENDCHAR
STARTCHAR afii10044
ENCODING 1066
SWIDTH 869 0
DWIDTH 9 0
BBX 8 7 0 0
BITMAP
E0
20
20
3E
21
21
3E
ENDCHAR
STARTCHAR afii10045
ENCODING 1067
SWIDTH 979 0
DWIDTH 10 0
BBX 8 7 1 0
BITMAP
81
81
81
F9
85
85
F9
ENDCHAR
STARTCHAR afii10046
ENCODING 1068
SWIDTH 718 0
DWIDTH 7 0
BBX 5 7 1 0
BITMAP
80
80
80
F0
88
88
F0
ENDCHAR
STARTCHAR afii10047
ENCODING 1069
SWIDTH 711 0
DWIDTH 7 0
BBX 5 7 1 0
BITMAP
70
88
08
38
08
88
70
ENDCHAR
STARTCHAR afii10048
ENCODING 1070
SWIDTH 1031 0
DWIDTH 10 0
BBX 8 7 1 0
BITMAP
9E
A1
A1
E1
A1
A1
9E
ENDCHAR
STARTCHAR afii10049
ENCODING 1071
SWIDTH 718 0
DWIDTH 7 0
BBX 6 7 0 0
BITMAP
3C
44
44
3C
24
44
84
ENDCHAR
STARTCHAR afii10065
ENCODING 1072
SWIDTH 556 0
DWIDTH 6 0
BBX 6 5 0 0
BITMAP
F0
08
78
88
74
ENDCHAR
STARTCHAR afii10066
ENCODING 1073
SWIDTH 617 0
DWIDTH 6 0
BBX 5 7 0 0
BITMAP
38
40
F0
88
88
88
70
ENDCHAR
STARTCHAR afii10067
ENCODING 1074
SWIDTH 614 0
DWIDTH 6 0
BBX 5 5 0 0
BITMAP
F0
88
F0
88
F0
ENDCHAR
STARTCHAR afii10068
ENCODING 1075
SWIDTH 416 0
DWIDTH 4 0
BBX 3 5 0 0
BITMAP
E0
80
80
80
80
ENDCHAR
STARTCHAR afii10069
ENCODING 1076
SWIDTH 634 0
DWIDTH 6 0
BBX 5 7 0 -2
BITMAP
70
50
50
90
F8
88
88
ENDCHAR
STARTCHAR afii10070
ENCODING 1077
SWIDTH 556 0
DWIDTH 6 0
BBX 5 5 0 0
BITMAP
70
88
F8
80
78
ENDCHAR
STARTCHAR afii10072
ENCODING 1078
SWIDTH 708 0
DWIDTH 6 0
BBX 5 5 0 0
BITMAP
A8
A8
70
A8
A8
ENDCHAR
STARTCHAR afii10073
ENCODING 1079
SWIDTH 497 0
DWIDTH 5 0
BBX 4 5 0 0
BITMAP
E0
10
20
10
E0
ENDCHAR
STARTCHAR afii10074
ENCODING 1080
SWIDTH 614 0
DWIDTH 6 0
BBX 5 5 0 0
BITMAP
88
98
A8
C8
88
ENDCHAR
STARTCHAR afii10075
ENCODING 1081
SWIDTH 614 0
DWIDTH 6 0
BBX 5 8 0 0
BITMAP
50
20
00
88
98
A8
C8
88
ENDCHAR
STARTCHAR afii10076
ENCODING 1082
SWIDTH 500 0
DWIDTH 5 0
BBX 4 5 0 0
BITMAP
90
A0
C0
A0
90
ENDCHAR
STARTCHAR afii10077
ENCODING 1083
SWIDTH 635 0
DWIDTH 6 0
BBX 5 5 0 0
BITMAP
78
48
48
48
88
ENDCHAR
STARTCHAR afii10078
ENCODING 1084
SWIDTH 739 0
DWIDTH 6 0
BBX 5 5 0 0
BITMAP
88
D8
D8
A8
A8
ENDCHAR
STARTCHAR afii10079
ENCODING 1085
SWIDTH 604 0
DWIDTH 6 0
BBX 5 5 0 0
BITMAP
88
88
F8
88
88
ENDCHAR
STARTCHAR afii10080
ENCODING 1086
SWIDTH 610 0
DWIDTH 6 0
BBX 5 5 0 0
BITMAP
70
88
88
88
70
ENDCHAR
STARTCHAR afii10081
ENCODING 1087
SWIDTH 604 0
DWIDTH 6 0
BBX 5 5 0 0
BITMAP
F8
88
88
88
88
ENDCHAR
STARTCHAR afii10082
ENCODING 1088
SWIDTH 610 0
DWIDTH 6 0
BBX 5 8 0 -3
BITMAP
F0
88
88
88
F0
80
80
80
ENDCHAR
STARTCHAR afii10083
ENCODING 1089
SWIDTH 556 0
DWIDTH 6 0
BBX 5 5 0 0
BITMAP
70
88
80
88
70
ENDCHAR
STARTCHAR afii10084
ENCODING 1090
SWIDTH 489 0
DWIDTH 4 0
BBX 3 5 0 0
BITMAP
E0
40
40
40
40
ENDCHAR
STARTCHAR afii10085
ENCODING 1091
SWIDTH 556 0
DWIDTH 5 0
BBX 5 8 0 -3
BITMAP
88
88
50
50
20
20
20
C0
ENDCHAR
STARTCHAR afii10086
ENCODING 1092
SWIDTH 875 0
DWIDTH 8 0
BBX 7 10 0 -3
BITMAP
10
10
7C
92
92
92
7C
10
10
10
ENDCHAR
STARTCHAR afii10087
ENCODING 1093
SWIDTH 556 0
DWIDTH 6 0
BBX 5 5 0 0
BITMAP
88
50
20
50
88
ENDCHAR
STARTCHAR afii10088
ENCODING 1094
SWIDTH 614 0
DWIDTH 6 0
BBX 6 7 0 -2
BITMAP
88
88
88
88
FC
04
04
ENDCHAR
STARTCHAR afii10089
ENCODING 1095
SWIDTH 580 0
DWIDTH 6 0
BBX 5 5 0 0
BITMAP
88
88
78
08
08
ENDCHAR
STARTCHAR afii10090
ENCODING 1096
SWIDTH 833 0
DWIDTH 8 0
BBX 7 5 0 0
BITMAP
92
92
92
92
FE
ENDCHAR
STARTCHAR afii10091
ENCODING 1097
SWIDTH 843 0
DWIDTH 9 0
BBX 8 7 0 -2
BITMAP
92
92
92
92
FF
01
01
ENDCHAR
STARTCHAR afii10092
ENCODING 1098
SWIDTH 729 0
DWIDTH 7 0
BBX 6 5 0 0
BITMAP
E0
20
38
24
38
ENDCHAR
STARTCHAR afii10093
ENCODING 1099
SWIDTH 854 0
DWIDTH 9 0
BBX 7 5 0 0
BITMAP
82
82
F2
8A
F2
ENDCHAR
STARTCHAR afii10094
ENCODING 1100
SWIDTH 614 0
DWIDTH 6 0
BBX 5 5 0 0
BITMAP
80
80
F0
88
F0
ENDCHAR
STARTCHAR afii10095
ENCODING 1101
SWIDTH 552 0
DWIDTH 6 0
BBX 5 5 0 0
BITMAP
70
88
38
88
70
ENDCHAR
STARTCHAR afii10096
ENCODING 1102
SWIDTH 854 0
DWIDTH 9 0
BBX 8 5 0 0
BITMAP
8E
91
F1
91
8E
ENDCHAR
STARTCHAR afii10097
ENCODING 1103
SWIDTH 583 0
DWIDTH 6 0
BBX 5 5 0 0
BITMAP
78
88
78
48
88
ENDCHAR
STARTCHAR afii10071
ENCODING 1105
SWIDTH 556 0
DWIDTH 6 0
BBX 5 7 0 0
BITMAP
50
00
70
88
F8
80
78
ENDCHAR
STARTCHAR afii10099
ENCODING 1106
SWIDTH 610 0
DWIDTH 6 0
BBX 6 10 -1 -3
BITMAP
40
F0
40
78
44
44
44
04
04
18
ENDCHAR
STARTCHAR afii10100
ENCODING 1107
SWIDTH 416 0
DWIDTH 4 0
BBX 3 8 0 0
BITMAP
20
40
00
E0
80
80
80
80
ENDCHAR
STARTCHAR afii10101
ENCODING 1108
SWIDTH 552 0
DWIDTH 6 0
BBX 5 5 0 0
BITMAP
70
88
E0
88
70
ENDCHAR
STARTCHAR afii10102
ENCODING 1109
SWIDTH 556 0
DWIDTH 6 0
BBX 5 5 0 0
BITMAP
78
80
70
08
F8
ENDCHAR
STARTCHAR afii10103
ENCODING 1110
SWIDTH 277 0
DWIDTH 3 0
BBX 1 7 1 0
BITMAP
80
00
80
80
80
80
80
ENDCHAR
STARTCHAR afii10104
ENCODING 1111
SWIDTH 281 0
DWIDTH 3 0
BBX 3 7 0 0
BITMAP
A0
00
40
40
40
40
40
ENDCHAR
STARTCHAR afii10105
ENCODING 1112
SWIDTH 277 0
DWIDTH 4 0
BBX 2 10 0 -3
BITMAP
40
00
40
40
40
40
40
40
40
80
ENDCHAR
STARTCHAR afii10106
ENCODING 1113
SWIDTH 968 0
DWIDTH 10 0
BBX 9 5 0 0
BITMAP
7800
4800
4F00
4880
8F00
ENDCHAR
STARTCHAR afii10107
ENCODING 1114
SWIDTH 906 0
DWIDTH 9 0
BBX 8 5 0 0
BITMAP
90
90
FE
91
9E
ENDCHAR
STARTCHAR afii10108
ENCODING 1115
SWIDTH 610 0
DWIDTH 6 0
BBX 6 7 -1 0
BITMAP
40
F0
40
78
44
44
44
ENDCHAR
STARTCHAR afii10109
ENCODING 1116
SWIDTH 500 0
DWIDTH 5 0
BBX 4 8 0 0
BITMAP
10
20
00
90
A0
C0
A0
90
ENDCHAR
STARTCHAR afii10110
ENCODING 1118
SWIDTH 556 0
DWIDTH 5 0
BBX 5 11 0 -3
BITMAP
50
20
00
88
88
50
50
20
20
20
C0
ENDCHAR
STARTCHAR afii10193
ENCODING 1119
SWIDTH 604 0
DWIDTH 6 0
BBX 5 7 0 -2
BITMAP
88
88
88
88
F8
20
20
ENDCHAR
STARTCHAR afii10050
ENCODING 1168
SWIDTH 486 0
DWIDTH 5 0
BBX 4 9 1 0
BITMAP
10
10
F0
80
80
80
80
80
80
ENDCHAR
STARTCHAR afii10098
ENCODING 1169
SWIDTH 446 0
DWIDTH 4 0
BBX 3 7 0 0
BITMAP
20
20
E0
80
80
80
80
ENDCHAR
STARTCHAR Wgrave
ENCODING 7808
SWIDTH 943 0
DWIDTH 9 0
BBX 10 10 0 0
BITMAP
1000
0800
0000
88C0
8C80
5480
5480
5300
3300
2200
ENDCHAR
STARTCHAR wgrave
ENCODING 7809
SWIDTH 777 0
DWIDTH 9 0
BBX 9 8 0 0
BITMAP
1000
0800
0000
8880
8880
5500
5500
2200
ENDCHAR
STARTCHAR Wacute
ENCODING 7810
SWIDTH 943 0
DWIDTH 9 0
BBX 10 10 0 0
BITMAP
0400
0800
0000
88C0
8C80
5480
5480
5300
3300
2200
ENDCHAR
STARTCHAR wacute
ENCODING 7811
SWIDTH 777 0
DWIDTH 9 0
BBX 9 8 0 0
BITMAP
0400
0800
0000
8880
8880
5500
5500
2200
ENDCHAR
STARTCHAR Wdieresis
ENCODING 7812
SWIDTH 943 0
DWIDTH 9 0
BBX 10 9 0 0
BITMAP
1400
0000
88C0
8C80
5480
5480
5300
3300
2200
ENDCHAR
STARTCHAR wdieresis
ENCODING 7813
SWIDTH 777 0
DWIDTH 9 0
BBX 9 7 0 0
BITMAP
1400
0000
8880
8880
5500
5500
2200
ENDCHAR
STARTCHAR Ygrave
ENCODING 7922
SWIDTH 666 0
DWIDTH 7 0
BBX 5 10 1 0
BITMAP
40
20
00
88
50
50
20
20
20
20
ENDCHAR
STARTCHAR ygrave
ENCODING 7923
SWIDTH 556 0
DWIDTH 5 0
BBX 5 11 0 -3
BITMAP
40
20
00
88
88
50
50
20
20
20
C0
ENDCHAR
STARTCHAR uni2010
ENCODING 8208
SWIDTH 333 0
DWIDTH 3 0
BBX 3 1 0 2
BITMAP
E0
ENDCHAR
STARTCHAR uni2011
ENCODING 8209
SWIDTH 333 0
DWIDTH 3 0
BBX 3 1 0 2
BITMAP
E0
ENDCHAR
STARTCHAR figuredash
ENCODING 8210
SWIDTH 333 0
DWIDTH 3 0
BBX 3 1 0 2
BITMAP
E0
ENDCHAR
STARTCHAR endash
ENCODING 8211
SWIDTH 556 0
DWIDTH 6 0
BBX 5 1 0 2
BITMAP
F8
ENDCHAR
STARTCHAR emdash
ENCODING 8212
SWIDTH 1000 0
DWIDTH 10 0
BBX 10 1 0 2
BITMAP
FFC0
ENDCHAR
STARTCHAR afii00208
ENCODING 8213
SWIDTH 1000 0
DWIDTH 10 0
BBX 10 1 0 2
BITMAP
FFC0
ENDCHAR
STARTCHAR underscoredbl
ENCODING 8215
SWIDTH 552 0
DWIDTH 6 0
BBX 6 2 0 -3
BITMAP
FC
FC
ENDCHAR
STARTCHAR quoteleft
ENCODING 8216
SWIDTH 277 0
DWIDTH 3 0
BBX 2 3 1 4
BITMAP
40
80
C0
ENDCHAR
STARTCHAR quoteright
ENCODING 8217
SWIDTH 277 0
DWIDTH 3 0
BBX 2 3 0 4
BITMAP
C0
40
80
ENDCHAR
STARTCHAR quotesinglbase
ENCODING 8218
SWIDTH 277 0
DWIDTH 3 0
BBX 2 3 1 -2
BITMAP
C0
40
80
ENDCHAR
STARTCHAR quotereversed
ENCODING 8219
SWIDTH 277 0
DWIDTH 3 0
BBX 2 3 1 4
BITMAP
C0
80
40
ENDCHAR
STARTCHAR quotedblleft
ENCODING 8220
SWIDTH 500 0
DWIDTH 5 0
BBX 5 3 0 4
BITMAP
48
90
D8
ENDCHAR
STARTCHAR quotedblright
ENCODING 8221
SWIDTH 500 0
DWIDTH 5 0
BBX 5 3 0 4
BITMAP
D8
48
90
ENDCHAR
STARTCHAR quotedblbase
ENCODING 8222
SWIDTH 500 0
DWIDTH 5 0
BBX 5 3 0 -2
BITMAP
D8
48
90
ENDCHAR
STARTCHAR dagger
ENCODING 8224
SWIDTH 556 0
DWIDTH 6 0
BBX 3 8 1 -1
BITMAP
40
40
E0
40
40
40
40
40
ENDCHAR
STARTCHAR daggerdbl
ENCODING 8225
SWIDTH 556 0
DWIDTH 6 0
BBX 3 8 1 -1
BITMAP
40
40
E0
40
40
E0
40
40
ENDCHAR
STARTCHAR bullet
ENCODING 8226
SWIDTH 350 0
DWIDTH 4 0
BBX 3 3 0 2
BITMAP
40
E0
40
ENDCHAR
STARTCHAR ellipsis
ENCODING 8230
SWIDTH 1000 0
DWIDTH 10 0
BBX 7 1 1 0
BITMAP
92
ENDCHAR
STARTCHAR perthousand
ENCODING 8240
SWIDTH 1000 0
DWIDTH 10 0
BBX 9 7 0 0
BITMAP
4800
A800
B000
6900
3680
5680
4900
ENDCHAR
STARTCHAR minute
ENCODING 8242
SWIDTH 239 0
DWIDTH 2 0
BBX 1 3 0 4
BITMAP
80
80
80
ENDCHAR
STARTCHAR second
ENCODING 8243
SWIDTH 479 0
DWIDTH 5 0
BBX 4 3 0 4
BITMAP
90
90
90
ENDCHAR
STARTCHAR guilsinglleft
ENCODING 8249
SWIDTH 333 0
DWIDTH 3 0
BBX 2 3 0 1
BITMAP
40
80
40
ENDCHAR
STARTCHAR guilsinglright
ENCODING 8250
SWIDTH 333 0
DWIDTH 3 0
BBX 2 3 0 1
BITMAP
80
40
80
ENDCHAR
STARTCHAR exclamdbl
ENCODING 8252
SWIDTH 604 0
DWIDTH 6 0
BBX 4 7 1 0
BITMAP
90
90
90
90
90
00
90
ENDCHAR
STARTCHAR uni203E
ENCODING 8254
SWIDTH 333 0
DWIDTH 3 0
BBX 5 1 -1 7
BITMAP
F8
ENDCHAR
STARTCHAR fraction
ENCODING 8260
SWIDTH 166 0
DWIDTH 2 0
BBX 4 7 -1 0
BITMAP
10
20
20
40
40
80
80
ENDCHAR
STARTCHAR uni207F
ENCODING 8319
SWIDTH 395 0
DWIDTH 4 0
BBX 3 3 0 3
BITMAP
C0
A0
A0
ENDCHAR
STARTCHAR franc
ENCODING 8355
SWIDTH 556 0
DWIDTH 6 0
BBX 5 7 0 0
BITMAP
78
40
40
78
40
E0
40
ENDCHAR
STARTCHAR lira
ENCODING 8356
SWIDTH 556 0
DWIDTH 6 0
BBX 5 7 0 0
BITMAP
30
48
F0
40
F0
48
F0
ENDCHAR
STARTCHAR peseta
ENCODING 8359
SWIDTH 1093 0
DWIDTH 7 0
BBX 7 7 0 0
BITMAP
C0
A0
B0
FA
94
92
8C
ENDCHAR
STARTCHAR Euro
ENCODING 8364
SWIDTH 556 0
DWIDTH 6 0
BBX 5 7 0 0
BITMAP
38
40
60
40
E0
40
38
ENDCHAR
STARTCHAR afii61248
ENCODING 8453
SWIDTH 885 0
DWIDTH 9 0
BBX 8 7 0 0
BITMAP
64
84
88
72
15
25
22
ENDCHAR
STARTCHAR afii61289
ENCODING 8467
SWIDTH 488 0
DWIDTH 5 0
BBX 4 7 0 0
BITMAP
20
50
50
60
C0
50
20
ENDCHAR
STARTCHAR afii61352
ENCODING 8470
SWIDTH 1114 0
DWIDTH 11 0
BBX 9 7 1 0
BITMAP
8800
C800
C900
AA80
9900
9800
8B80
ENDCHAR
STARTCHAR trademark
ENCODING 8482
SWIDTH 1000 0
DWIDTH 10 0
BBX 9 4 0 3
BITMAP
E880
4D80
4D80
4A80
ENDCHAR
STARTCHAR u2126
ENCODING 8486
SWIDTH 768 0
DWIDTH 8 0
BBX 6 7 1 0
BITMAP
78
84
84
84
84
48
FC
ENDCHAR
STARTCHAR estimated
ENCODING 8494
SWIDTH 600 0
DWIDTH 6 0
BBX 5 5 0 0
BITMAP
70
88
F8
80
78
ENDCHAR
STARTCHAR oneeighth
ENCODING 8539
SWIDTH 833 0
DWIDTH 8 0
BBX 8 7 0 0
BITMAP
C4
48
48
F7
12
25
22
ENDCHAR
STARTCHAR threeeighths
ENCODING 8540
SWIDTH 833 0
DWIDTH 8 0
BBX 8 7 0 0
BITMAP
C4
48
48
D7
12
25
22
ENDCHAR
STARTCHAR fiveeighths
ENCODING 8541
SWIDTH 833 0
DWIDTH 8 0
BBX 8 7 0 0
BITMAP
E4
C8
28
D7
12
25
22
ENDCHAR
STARTCHAR seveneighths
ENCODING 8542
SWIDTH 833 0
DWIDTH 8 0
BBX 8 7 0 0
BITMAP
E4
28
48
57
12
25
22
ENDCHAR
STARTCHAR arrowleft
ENCODING 8592
SWIDTH 1000 0
DWIDTH 10 0
BBX 6 3 2 0
BITMAP
40
FC
40
ENDCHAR
STARTCHAR arrowup
ENCODING 8593
SWIDTH 500 0
DWIDTH 5 0
BBX 3 6 1 0
BITMAP
40
E0
40
40
40
40
ENDCHAR
STARTCHAR arrowright
ENCODING 8594
SWIDTH 1000 0
DWIDTH 10 0
BBX 6 3 2 0
BITMAP
08
FC
08
ENDCHAR
STARTCHAR arrowdown
ENCODING 8595
SWIDTH 500 0
DWIDTH 5 0
BBX 3 6 1 0
BITMAP
40
40
40
40
E0
40
ENDCHAR
STARTCHAR arrowboth
ENCODING 8596
SWIDTH 1000 0
DWIDTH 10 0
BBX 6 3 2 0
BITMAP
48
FC
48
ENDCHAR
STARTCHAR arrowupdn
ENCODING 8597
SWIDTH 500 0
DWIDTH 5 0
BBX 3 6 1 0
BITMAP
40
E0
40
40
E0
40
ENDCHAR
STARTCHAR arrowupdnbse
ENCODING 8616
SWIDTH 500 0
DWIDTH 5 0
BBX 3 8 1 -2
BITMAP
40
E0
40
40
E0
40
00
E0
ENDCHAR
STARTCHAR partialdiff
ENCODING 8706
SWIDTH 494 0
DWIDTH 5 0
BBX 5 7 0 0
BITMAP
70
08
78
C8
88
90
60
ENDCHAR
STARTCHAR u2206
ENCODING 8710
SWIDTH 611 0
DWIDTH 6 0
BBX 6 7 0 0
BITMAP
30
30
48
48
48
84
FC
ENDCHAR
STARTCHAR product
ENCODING 8719
SWIDTH 823 0
DWIDTH 8 0
BBX 6 9 1 -2
BITMAP
FC
84
84
84
84
84
84
84
84
ENDCHAR
STARTCHAR summation
ENCODING 8721
SWIDTH 712 0
DWIDTH 7 0
BBX 5 9 1 -2
BITMAP
F8
80
40
20
10
20
40
80
F8
ENDCHAR
STARTCHAR minus
ENCODING 8722
SWIDTH 583 0
DWIDTH 6 0
BBX 5 1 0 3
BITMAP
F8
ENDCHAR
STARTCHAR fraction.dup4
ENCODING 8725
SWIDTH 166 0
DWIDTH 2 0
BBX 4 7 -1 0
BITMAP
10
20
20
40
40
80
80
ENDCHAR
STARTCHAR periodcentered.dup5
ENCODING 8729
SWIDTH 277 0
DWIDTH 3 0
BBX 1 1 1 3
BITMAP
80
ENDCHAR
STARTCHAR radical
ENCODING 8730
SWIDTH 548 0
DWIDTH 5 0
BBX 5 8 0 0
BITMAP
08
08
08
10
D0
50
50
20
ENDCHAR
STARTCHAR infinity
ENCODING 8734
SWIDTH 712 0
DWIDTH 7 0
BBX 5 4 1 1
BITMAP
50
A8
A8
50
ENDCHAR
STARTCHAR orthogonal
ENCODING 8735
SWIDTH 979 0
DWIDTH 10 0
BBX 7 7 2 0
BITMAP
80
80
80
80
80
80
FE
ENDCHAR
STARTCHAR intersection
ENCODING 8745
SWIDTH 722 0
DWIDTH 7 0
BBX 5 5 1 0
BITMAP
70
88
88
88
88
ENDCHAR
STARTCHAR integral
ENCODING 8747
SWIDTH 273 0
DWIDTH 3 0
BBX 3 9 0 -2
BITMAP
20
40
40
40
40
40
40
40
80
ENDCHAR
STARTCHAR approxequal
ENCODING 8776
SWIDTH 548 0
DWIDTH 5 0
BBX 2 5 1 1
BITMAP
80
40
00
80
40
ENDCHAR
STARTCHAR notequal
ENCODING 8800
SWIDTH 548 0
DWIDTH 5 0
BBX 4 5 0 1
BITMAP
10
F0
40
F0
80
ENDCHAR
STARTCHAR equivalence
ENCODING 8801
SWIDTH 583 0
DWIDTH 6 0
BBX 5 5 0 1
BITMAP
F8
00
F8
00
F8
ENDCHAR
STARTCHAR lessequal
ENCODING 8804
SWIDTH 548 0
DWIDTH 5 0
BBX 4 6 0 0
BITMAP
10
60
80
60
10
F0
ENDCHAR
STARTCHAR greaterequal
ENCODING 8805
SWIDTH 548 0
DWIDTH 5 0
BBX 4 6 0 0
BITMAP
80
60
10
60
80
F0
ENDCHAR
STARTCHAR house
ENCODING 8962
SWIDTH 604 0
DWIDTH 6 0
BBX 5 6 1 0
BITMAP
20
50
88
88
88
F8
ENDCHAR
STARTCHAR revlogicalnot
ENCODING 8976
SWIDTH 583 0
DWIDTH 6 0
BBX 5 3 0 1
BITMAP
F8
80
80
ENDCHAR
STARTCHAR integraltp
ENCODING 8992
SWIDTH 604 0
DWIDTH 6 0
BBX 2 11 3 -3
BITMAP
40
80
80
80
80
80
80
80
80
80
80
ENDCHAR
STARTCHAR integralbt
ENCODING 8993
SWIDTH 604 0
DWIDTH 6 0
BBX 2 11 2 -3
BITMAP
40
40
40
40
40
40
40
40
40
40
80
ENDCHAR
STARTCHAR SF100000
ENCODING 9472
SWIDTH 708 0
DWIDTH 7 0
BBX 7 1 0 2
BITMAP
FE
ENDCHAR
STARTCHAR SF110000
ENCODING 9474
SWIDTH 625 0
DWIDTH 6 0
BBX 1 12 3 -3
BITMAP
80
80
80
80
80
80
80
80
80
80
80
80
ENDCHAR
STARTCHAR SF010000
ENCODING 9484
SWIDTH 708 0
DWIDTH 7 0
BBX 4 6 3 -3
BITMAP
F0
80
80
80
80
80
ENDCHAR
STARTCHAR SF030000
ENCODING 9488
SWIDTH 708 0
DWIDTH 7 0
BBX 4 6 0 -3
BITMAP
F0
10
10
10
10
10
ENDCHAR
STARTCHAR SF020000
ENCODING 9492
SWIDTH 708 0
DWIDTH 7 0
BBX 4 7 3 2
BITMAP
80
80
80
80
80
80
F0
ENDCHAR
STARTCHAR SF040000
ENCODING 9496
SWIDTH 708 0
DWIDTH 7 0
BBX 4 7 0 2
BITMAP
10
10
10
10
10
10
F0
ENDCHAR
STARTCHAR SF080000
ENCODING 9500
SWIDTH 708 0
DWIDTH 7 0
BBX 4 12 3 -3
BITMAP
80
80
80
80
80
80
F0
80
80
80
80
80
ENDCHAR
STARTCHAR SF090000
ENCODING 9508
SWIDTH 708 0
DWIDTH 7 0
BBX 4 12 0 -3
BITMAP
10
10
10
10
10
10
F0
10
10
10
10
10
ENDCHAR
STARTCHAR SF060000
ENCODING 9516
SWIDTH 708 0
DWIDTH 7 0
BBX 7 6 0 -3
BITMAP
FE
10
10
10
10
10
ENDCHAR
STARTCHAR SF070000
ENCODING 9524
SWIDTH 708 0
DWIDTH 7 0
BBX 7 7 0 2
BITMAP
10
10
10
10
10
10
FE
ENDCHAR
STARTCHAR SF050000
ENCODING 9532
SWIDTH 708 0
DWIDTH 7 0
BBX 7 12 0 -3
BITMAP
10
10
10
10
10
10
FE
10
10
10
10
10
ENDCHAR
STARTCHAR SF430000
ENCODING 9552
SWIDTH 708 0
DWIDTH 7 0
BBX 7 3 0 1
BITMAP
FE
00
FE
ENDCHAR
STARTCHAR SF240000
ENCODING 9553
SWIDTH 708 0
DWIDTH 7 0
BBX 3 12 2 -3
BITMAP
A0
A0
A0
A0
A0
A0
A0
A0
A0
A0
A0
A0
ENDCHAR
STARTCHAR SF510000
ENCODING 9554
SWIDTH 708 0
DWIDTH 7 0
BBX 4 7 3 -3
BITMAP
F0
80
F0
80
80
80
80
ENDCHAR
STARTCHAR SF520000
ENCODING 9555
SWIDTH 708 0
DWIDTH 7 0
BBX 5 6 2 -3
BITMAP
F8
A0
A0
A0
A0
A0
ENDCHAR
STARTCHAR SF390000
ENCODING 9556
SWIDTH 708 0
DWIDTH 7 0
BBX 5 7 2 -3
BITMAP
F8
80
B8
A0
A0
A0
A0
ENDCHAR
STARTCHAR SF220000
ENCODING 9557
SWIDTH 708 0
DWIDTH 7 0
BBX 4 7 0 -3
BITMAP
F0
10
F0
10
10
10
10
ENDCHAR
STARTCHAR SF210000
ENCODING 9558
SWIDTH 708 0
DWIDTH 7 0
BBX 5 6 0 -3
BITMAP
F8
28
28
28
28
28
ENDCHAR
STARTCHAR SF250000
ENCODING 9559
SWIDTH 708 0
DWIDTH 7 0
BBX 5 7 0 -3
BITMAP
F8
08
E8
28
28
28
28
ENDCHAR
STARTCHAR SF500000
ENCODING 9560
SWIDTH 708 0
DWIDTH 7 0
BBX 4 8 3 1
BITMAP
80
80
80
80
80
F0
80
F0
ENDCHAR
STARTCHAR SF490000
ENCODING 9561
SWIDTH 708 0
DWIDTH 7 0
BBX 5 7 2 2
BITMAP
A0
A0
A0
A0
A0
A0
F8
ENDCHAR
STARTCHAR SF380000
ENCODING 9562
SWIDTH 708 0
DWIDTH 7 0
BBX 5 8 2 1
BITMAP
A0
A0
A0
A0
A0
B8
80
F8
ENDCHAR
STARTCHAR SF280000
ENCODING 9563
SWIDTH 708 0
DWIDTH 7 0
BBX 4 8 0 1
BITMAP
10
10
10
10
10
F0
10
F0
ENDCHAR
STARTCHAR SF270000
ENCODING 9564
SWIDTH 708 0
DWIDTH 7 0
BBX 5 7 0 2
BITMAP
28
28
28
28
28
28
F8
ENDCHAR
STARTCHAR SF260000
ENCODING 9565
SWIDTH 708 0
DWIDTH 7 0
BBX 5 8 0 1
BITMAP
28
28
28
28
28
E8
08
F8
ENDCHAR
STARTCHAR SF360000
ENCODING 9566
SWIDTH 708 0
DWIDTH 7 0
BBX 4 12 3 -3
BITMAP
80
80
80
80
80
F0
80
F0
80
80
80
80
ENDCHAR
STARTCHAR SF370000
ENCODING 9567
SWIDTH 708 0
DWIDTH 7 0
BBX 5 12 2 -3
BITMAP
A0
A0
A0
A0
A0
A0
B8
A0
A0
A0
A0
A0
ENDCHAR
STARTCHAR SF420000
ENCODING 9568
SWIDTH 708 0
DWIDTH 7 0
BBX 5 12 2 -3
BITMAP
A0
A0
A0
A0
A0
B8
80
B8
A0
A0
A0
A0
ENDCHAR
STARTCHAR SF190000
ENCODING 9569
SWIDTH 708 0
DWIDTH 7 0
BBX 4 12 0 -3
BITMAP
10
10
10
10
10
F0
10
F0
10
10
10
10
ENDCHAR
STARTCHAR SF200000
ENCODING 9570
SWIDTH 708 0
DWIDTH 7 0
BBX 5 12 0 -3
BITMAP
28
28
28
28
28
28
E8
28
28
28
28
28
ENDCHAR
STARTCHAR SF230000
ENCODING 9571
SWIDTH 708 0
DWIDTH 7 0
BBX 5 12 0 -3
BITMAP
28
28
28
28
28
E8
08
E8
28
28
28
28
ENDCHAR
STARTCHAR SF470000
ENCODING 9572
SWIDTH 708 0
DWIDTH 7 0
BBX 7 7 0 -3
BITMAP
FE
00
FE
10
10
10
10
ENDCHAR
STARTCHAR SF480000
ENCODING 9573
SWIDTH 708 0
DWIDTH 7 0
BBX 7 6 0 -3
BITMAP
FE
28
28
28
28
28
ENDCHAR
STARTCHAR SF410000
ENCODING 9574
SWIDTH 708 0
DWIDTH 7 0
BBX 7 7 0 -3
BITMAP
FE
00
EE
28
28
28
28
ENDCHAR
STARTCHAR SF450000
ENCODING 9575
SWIDTH 708 0
DWIDTH 7 0
BBX 7 8 0 1
BITMAP
10
10
10
10
10
FE
00
FE
ENDCHAR
STARTCHAR SF460000
ENCODING 9576
SWIDTH 708 0
DWIDTH 7 0
BBX 7 7 0 2
BITMAP
28
28
28
28
28
28
FE
ENDCHAR
STARTCHAR SF400000
ENCODING 9577
SWIDTH 708 0
DWIDTH 7 0
BBX 7 8 0 1
BITMAP
28
28
28
28
28
EE
00
FE
ENDCHAR
STARTCHAR SF540000
ENCODING 9578
SWIDTH 708 0
DWIDTH 7 0
BBX 7 12 0 -3
BITMAP
10
10
10
10
10
FE
10
FE
10
10
10
10
ENDCHAR
STARTCHAR SF530000
ENCODING 9579
SWIDTH 708 0
DWIDTH 7 0
BBX 7 12 0 -3
BITMAP
28
28
28
28
28
28
FE
28
28
28
28
28
ENDCHAR
STARTCHAR SF440000
ENCODING 9580
SWIDTH 708 0
DWIDTH 7 0
BBX 7 12 0 -3
BITMAP
28
28
28
28
28
EE
00
EE
28
28
28
28
ENDCHAR
STARTCHAR upblock
ENCODING 9600
SWIDTH 708 0
DWIDTH 7 0
BBX 7 6 0 3
BITMAP
FE
FE
FE
FE
FE
FE
ENDCHAR
STARTCHAR dnblock
ENCODING 9604
SWIDTH 708 0
DWIDTH 7 0
BBX 7 6 0 -3
BITMAP
FE
FE
FE
FE
FE
FE
ENDCHAR
STARTCHAR block
ENCODING 9608
SWIDTH 708 0
DWIDTH 7 0
BBX 7 12 0 -3
BITMAP
FE
FE
FE
FE
FE
FE
FE
FE
FE
FE
FE
FE
ENDCHAR
STARTCHAR lfblock
ENCODING 9612
SWIDTH 708 0
DWIDTH 7 0
BBX 4 12 0 -3
BITMAP
F0
F0
F0
F0
F0
F0
F0
F0
F0
F0
F0
F0
ENDCHAR
STARTCHAR rtblock
ENCODING 9616
SWIDTH 708 0
DWIDTH 7 0
BBX 3 12 4 -3
BITMAP
E0
E0
E0
E0
E0
E0
E0
E0
E0
E0
E0
E0
ENDCHAR
STARTCHAR ltshade
ENCODING 9617
SWIDTH 708 0
DWIDTH 7 0
BBX 7 12 1 -3
BITMAP
AA
54
AA
54
54
AA
54
FE
00
54
FE
54
ENDCHAR
STARTCHAR shade
ENCODING 9618
SWIDTH 708 0
DWIDTH 7 0
BBX 7 8 0 -3
BITMAP
80
FE
80
FE
80
FE
80
FE
ENDCHAR
STARTCHAR dkshade
ENCODING 9619
SWIDTH 729 0
DWIDTH 7 0
BBX 7 11 0 -3
BITMAP
FE
FE
FE
FE
FE
FE
FE
FE
FE
FE
FE
ENDCHAR
STARTCHAR filledbox
ENCODING 9632
SWIDTH 604 0
DWIDTH 6 0
BBX 4 4 1 1
BITMAP
F0
F0
F0
F0
ENDCHAR
STARTCHAR H22073
ENCODING 9633
SWIDTH 604 0
DWIDTH 6 0
BBX 6 6 0 0
BITMAP
FC
84
84
84
84
FC
ENDCHAR
STARTCHAR H18543
ENCODING 9642
SWIDTH 354 0
DWIDTH 4 0
BBX 2 2 1 2
BITMAP
C0
C0
ENDCHAR
STARTCHAR H18551
ENCODING 9643
SWIDTH 354 0
DWIDTH 4 0
BBX 2 2 1 2
BITMAP
C0
C0
ENDCHAR
STARTCHAR filledrect
ENCODING 9644
SWIDTH 1000 0
DWIDTH 10 0
BBX 10 3 0 0
BITMAP
FFC0
FFC0
FFC0
ENDCHAR
STARTCHAR triagup
ENCODING 9650
SWIDTH 989 0
DWIDTH 10 0
BBX 6 5 2 0
BITMAP
30
30
78
78
FC
ENDCHAR
STARTCHAR triagrt
ENCODING 9658
SWIDTH 989 0
DWIDTH 10 0
BBX 5 6 2 0
BITMAP
80
E0
F8
F8
E0
80
ENDCHAR
STARTCHAR triagdn
ENCODING 9660
SWIDTH 989 0
DWIDTH 10 0
BBX 6 6 2 0
BITMAP
FC
78
78
30
30
20
ENDCHAR
STARTCHAR triaglf
ENCODING 9668
SWIDTH 989 0
DWIDTH 10 0
BBX 6 6 2 0
BITMAP
04
1C
7C
FC
1C
04
ENDCHAR
STARTCHAR lozenge
ENCODING 9674
SWIDTH 494 0
DWIDTH 5 0
BBX 3 7 1 0
BITMAP
40
40
A0
A0
A0
40
40
ENDCHAR
STARTCHAR circle
ENCODING 9675
SWIDTH 604 0
DWIDTH 6 0
BBX 4 4 1 1
BITMAP
60
90
90
60
ENDCHAR
STARTCHAR H18533
ENCODING 9679
SWIDTH 604 0
DWIDTH 6 0
BBX 4 4 1 1
BITMAP
60
F0
F0
60
ENDCHAR
STARTCHAR invbullet
ENCODING 9688
SWIDTH 604 0
DWIDTH 6 0
BBX 6 6 0 0
BITMAP
FC
CC
84
84
CC
FC
ENDCHAR
STARTCHAR invcircle
ENCODING 9689
SWIDTH 604 0
DWIDTH 6 0
BBX 6 6 0 0
BITMAP
FC
CC
B4
B4
CC
FC
ENDCHAR
STARTCHAR openbullet
ENCODING 9702
SWIDTH 354 0
DWIDTH 4 0
BBX 2 2 1 2
BITMAP
C0
C0
ENDCHAR
STARTCHAR smileface
ENCODING 9786
SWIDTH 1020 0
DWIDTH 10 0
BBX 6 6 2 0
BITMAP
78
84
CC
B4
84
78
ENDCHAR
STARTCHAR invsmileface
ENCODING 9787
SWIDTH 1052 0
DWIDTH 11 0
BBX 6 6 2 0
BITMAP
78
FC
B4
FC
CC
78
ENDCHAR
STARTCHAR sun
ENCODING 9788
SWIDTH 916 0
DWIDTH 9 0
BBX 5 5 2 0
BITMAP
20
70
D8
70
20
ENDCHAR
STARTCHAR female
ENCODING 9792
SWIDTH 750 0
DWIDTH 8 0
BBX 3 6 2 0
BITMAP
E0
A0
E0
40
E0
40
ENDCHAR
STARTCHAR male
ENCODING 9794
SWIDTH 750 0
DWIDTH 8 0
BBX 4 4 2 1
BITMAP
10
E0
A0
E0
ENDCHAR
STARTCHAR spade
ENCODING 9824
SWIDTH 531 0
DWIDTH 5 0
BBX 5 6 0 0
BITMAP
20
70
F8
F8
20
70
ENDCHAR
STARTCHAR club
ENCODING 9827
SWIDTH 656 0
DWIDTH 7 0
BBX 6 6 0 0
BITMAP
30
30
FC
FC
20
30
ENDCHAR
STARTCHAR heart
ENCODING 9829
SWIDTH 593 0
DWIDTH 6 0
BBX 5 6 0 0
BITMAP
D8
F8
F8
70
20
20
ENDCHAR
STARTCHAR diamond
ENCODING 9830
SWIDTH 510 0
DWIDTH 5 0
BBX 5 7 0 -1
BITMAP
20
20
70
F8
70
20
20
ENDCHAR
STARTCHAR musicalnote
ENCODING 9834
SWIDTH 500 0
DWIDTH 5 0
BBX 3 5 1 0
BITMAP
40
60
60
60
C0
ENDCHAR
STARTCHAR musicalnotedbl
ENCODING 9835
SWIDTH 750 0
DWIDTH 8 0
BBX 5 6 1 0
BITMAP
38
48
78
48
48
D8
ENDCHAR
STARTCHAR uniF001
ENCODING 61441
SWIDTH 610 0
DWIDTH 6 0
BBX 5 7 0 0
BITMAP
28
40
E8
48
48
48
48
ENDCHAR
STARTCHAR uniF002
ENCODING 61442
SWIDTH 610 0
DWIDTH 6 0
BBX 5 7 0 0
BITMAP
28
48
E8
48
48
48
48
ENDCHAR
STARTCHAR uniF005
ENCODING 61445
SWIDTH 333 0
DWIDTH 3 0
BBX 2 3 0 -3
BITMAP
80
40
80
ENDCHAR
STARTCHAR uniF001.dup6
ENCODING 64257
SWIDTH 610 0
DWIDTH 6 0
BBX 5 7 0 0
BITMAP
28
40
E8
48
48
48
48
ENDCHAR
STARTCHAR uniF002.dup7
ENCODING 64258
SWIDTH 610 0
DWIDTH 6 0
BBX 5 7 0 0
BITMAP
28
48
E8
48
48
48
48
ENDCHAR
STARTCHAR .notdef
ENCODING -1
SWIDTH 750 0
DWIDTH 8 0
BBX 6 7 1 0
BITMAP
FC
84
84
84
84
84
FC
ENDCHAR
STARTCHAR .null
ENCODING -1
SWIDTH 0 0
DWIDTH 0 0
BBX 1 1 0 0
BITMAP
00
ENDCHAR
STARTCHAR nonmarkingreturn
ENCODING -1
SWIDTH 277 0
DWIDTH 3 0
BBX 1 1 0 0
BITMAP
00
ENDCHAR
STARTCHAR middot
ENCODING -1
SWIDTH 333 0
DWIDTH 3 0
BBX 1 1 1 3
BITMAP
80
ENDCHAR
STARTCHAR commaaccent
ENCODING -1
SWIDTH 333 0
DWIDTH 3 0
BBX 1 2 1 -3
BITMAP
80
80
ENDCHAR
STARTCHAR foursuperior
ENCODING -1
SWIDTH 333 0
DWIDTH 3 0
BBX 3 4 0 3
BITMAP
60
A0
E0
20
ENDCHAR
STARTCHAR fivesuperior
ENCODING -1
SWIDTH 333 0
DWIDTH 3 0
BBX 3 4 0 3
BITMAP
E0
C0
20
C0
ENDCHAR
STARTCHAR sevensuperior
ENCODING -1
SWIDTH 333 0
DWIDTH 3 0
BBX 3 4 0 3
BITMAP
E0
20
40
40
ENDCHAR
STARTCHAR eightsuperior
ENCODING -1
SWIDTH 333 0
DWIDTH 3 0
BBX 3 4 0 3
BITMAP
E0
40
A0
40
ENDCHAR
STARTCHAR cyrillicbreve
ENCODING -1
SWIDTH 333 0
DWIDTH 3 0
BBX 3 2 0 6
BITMAP
A0
40
ENDCHAR
STARTCHAR caroncommaaccent
ENCODING -1
SWIDTH 222 0
DWIDTH 2 0
BBX 1 2 1 5
BITMAP
80
80
ENDCHAR
STARTCHAR commaaccentrotate
ENCODING -1
SWIDTH 222 0
DWIDTH 2 0
BBX 1 2 1 6
BITMAP
80
80
ENDCHAR
STARTCHAR grave.uc
ENCODING -1
SWIDTH 333 0
DWIDTH 3 0
BBX 2 2 0 8
BITMAP
80
40
ENDCHAR
STARTCHAR acute.uc
ENCODING -1
SWIDTH 333 0
DWIDTH 3 0
BBX 2 2 0 8
BITMAP
40
80
ENDCHAR
STARTCHAR circumflex.uc
ENCODING -1
SWIDTH 333 0
DWIDTH 3 0
BBX 3 2 0 8
BITMAP
40
A0
ENDCHAR
STARTCHAR caron.uc
ENCODING -1
SWIDTH 333 0
DWIDTH 3 0
BBX 3 2 0 8
BITMAP
A0
40
ENDCHAR
STARTCHAR dieresis.uc
ENCODING -1
SWIDTH 333 0
DWIDTH 3 0
BBX 3 1 0 8
BITMAP
A0
ENDCHAR
STARTCHAR tilde.uc
ENCODING -1
SWIDTH 333 0
DWIDTH 3 0
BBX 4 2 0 8
BITMAP
50
A0
ENDCHAR
STARTCHAR hungarumlaut.uc
ENCODING -1
SWIDTH 333 0
DWIDTH 3 0
BBX 4 2 0 8
BITMAP
50
A0
ENDCHAR
STARTCHAR breve.uc
ENCODING -1
SWIDTH 333 0
DWIDTH 3 0
BBX 4 2 0 8
BITMAP
90
60
ENDCHAR
ENDFONT
